<?xml version="1.0" encoding="UTF-8"?>
<svg width="25px" height="24px" viewBox="0 0 25 24" version="1.1" xmlns="http://www.w3.org/2000/svg" xmlns:xlink="http://www.w3.org/1999/xlink">
    <title>apps/128/deepin-devicemanager</title>
    <defs>
        <filter x="-10.1%" y="-5.2%" width="120.1%" height="120.9%" filterUnits="objectBoundingBox" id="filter-1">
            <feOffset dx="0" dy="1" in="SourceAlpha" result="shadowOffsetOuter1"></feOffset>
            <feGaussianBlur stdDeviation="0.5" in="shadowOffsetOuter1" result="shadowBlurOuter1"></feGaussianBlur>
            <feColorMatrix values="0 0 0 0 0   0 0 0 0 0   0 0 0 0 0  0 0 0 0.20036604 0" type="matrix" in="shadowBlurOuter1" result="shadowMatrixOuter1"></feColorMatrix>
            <feMerge>
                <feMergeNode in="shadowMatrixOuter1"></feMergeNode>
                <feMergeNode in="SourceGraphic"></feMergeNode>
            </feMerge>
        </filter>
        <linearGradient x1="50%" y1="2.37536127%" x2="50%" y2="97.115995%" id="linearGradient-2">
            <stop stop-color="#494949" offset="0%"></stop>
            <stop stop-color="#2D2D2D" offset="100%"></stop>
        </linearGradient>
        <path d="M3.84702962,0 L16.0279704,2.26708535e-16 C17.3656664,-1.31724187e-16 17.8507473,0.139281929 18.339789,0.400824274 C18.8288306,0.66236662 19.2126334,1.04616938 19.4741757,1.53521105 C19.7357181,2.02425271 19.875,2.50933361 19.875,3.84702962 L19.875,15.2779704 C19.875,16.6156664 19.7357181,17.1007473 19.4741757,17.589789 C19.2126334,18.0788306 18.8288306,18.4626334 18.339789,18.7241757 C17.8507473,18.9857181 17.3656664,19.125 16.0279704,19.125 L3.84702962,19.125 C2.50933361,19.125 2.02425271,18.9857181 1.53521105,18.7241757 C1.04616938,18.4626334 0.66236662,18.0788306 0.400824274,17.589789 C0.139281929,17.1007473 0,16.6156664 0,15.2779704 L-4.5341707e-16,3.84702962 C2.63448375e-16,2.50933361 0.139281929,2.02425271 0.400824274,1.53521105 C0.66236662,1.04616938 1.04616938,0.66236662 1.53521105,0.400824274 C2.02425271,0.139281929 2.50933361,0 3.84702962,0 Z" id="path-3"></path>
        <filter x="-7.5%" y="-7.8%" width="115.1%" height="115.7%" filterUnits="objectBoundingBox" id="filter-4">
            <feGaussianBlur stdDeviation="1" in="SourceAlpha" result="shadowBlurInner1"></feGaussianBlur>
            <feOffset dx="0" dy="-1" in="shadowBlurInner1" result="shadowOffsetInner1"></feOffset>
            <feComposite in="shadowOffsetInner1" in2="SourceAlpha" operator="arithmetic" k2="-1" k3="1" result="shadowInnerInner1"></feComposite>
            <feColorMatrix values="0 0 0 0 0   0 0 0 0 0.108032992   0 0 0 0 0.378311821  0 0 0 0.2 0" type="matrix" in="shadowInnerInner1"></feColorMatrix>
        </filter>
        <linearGradient x1="40.7675756%" y1="0%" x2="40.7675756%" y2="100%" id="linearGradient-5">
            <stop stop-color="#FFFFFF" stop-opacity="0.2" offset="0%"></stop>
            <stop stop-color="#000000" stop-opacity="0.2" offset="100%"></stop>
        </linearGradient>
        <linearGradient x1="29.022469%" y1="7.88270325%" x2="70.977531%" y2="92.0591191%" id="linearGradient-6">
            <stop stop-color="#E2D46C" offset="0%"></stop>
            <stop stop-color="#D7BC26" offset="18.1492935%"></stop>
            <stop stop-color="#CFB009" offset="38.885663%"></stop>
            <stop stop-color="#E7BF00" offset="56.4734084%"></stop>
            <stop stop-color="#D5B630" offset="70.4022382%"></stop>
            <stop stop-color="#C9A10A" offset="83.4427313%"></stop>
            <stop stop-color="#C2A422" offset="100%"></stop>
        </linearGradient>
        <path d="M15.1282343,16.5 L15.2467657,16.5 C15.2913555,16.5 15.3075249,16.5046427 15.3238263,16.5133608 C15.3401277,16.5220789 15.3529211,16.5348723 15.3616392,16.5511737 C15.3703573,16.5674751 15.375,16.5836445 15.375,16.6282343 L15.375,17.6842657 C15.375,17.7288555 15.3703573,17.7450249 15.3616392,17.7613263 C15.3529211,17.7776277 15.3401277,17.7904211 15.3238263,17.7991392 C15.3075249,17.8078573 15.2913555,17.8125 15.2467657,17.8125 L15.1282343,17.8125 C15.0836445,17.8125 15.0674751,17.8078573 15.0511737,17.7991392 C15.0348723,17.7904211 15.0220789,17.7776277 15.0133608,17.7613263 C15.0046427,17.7450249 15,17.7288555 15,17.6842657 L15,16.6282343 C15,16.5836445 15.0046427,16.5674751 15.0133608,16.5511737 C15.0220789,16.5348723 15.0348723,16.5220789 15.0511737,16.5133608 C15.0674751,16.5046427 15.0836445,16.5 15.1282343,16.5 Z M14.1907343,16.5 L14.3092657,16.5 C14.3538555,16.5 14.3700249,16.5046427 14.3863263,16.5133608 C14.4026277,16.5220789 14.4154211,16.5348723 14.4241392,16.5511737 C14.4328573,16.5674751 14.4375,16.5836445 14.4375,16.6282343 L14.4375,17.6842657 C14.4375,17.7288555 14.4328573,17.7450249 14.4241392,17.7613263 C14.4154211,17.7776277 14.4026277,17.7904211 14.3863263,17.7991392 C14.3700249,17.8078573 14.3538555,17.8125 14.3092657,17.8125 L14.1907343,17.8125 C14.1461445,17.8125 14.1299751,17.8078573 14.1136737,17.7991392 C14.0973723,17.7904211 14.0845789,17.7776277 14.0758608,17.7613263 C14.0671427,17.7450249 14.0625,17.7288555 14.0625,17.6842657 L14.0625,16.6282343 C14.0625,16.5836445 14.0671427,16.5674751 14.0758608,16.5511737 C14.0845789,16.5348723 14.0973723,16.5220789 14.1136737,16.5133608 C14.1299751,16.5046427 14.1461445,16.5 14.1907343,16.5 Z M13.2532343,16.5 L13.3717657,16.5 C13.4163555,16.5 13.4325249,16.5046427 13.4488263,16.5133608 C13.4651277,16.5220789 13.4779211,16.5348723 13.4866392,16.5511737 C13.4953573,16.5674751 13.5,16.5836445 13.5,16.6282343 L13.5,17.6842657 C13.5,17.7288555 13.4953573,17.7450249 13.4866392,17.7613263 C13.4779211,17.7776277 13.4651277,17.7904211 13.4488263,17.7991392 C13.4325249,17.8078573 13.4163555,17.8125 13.3717657,17.8125 L13.2532343,17.8125 C13.2086445,17.8125 13.1924751,17.8078573 13.1761737,17.7991392 C13.1598723,17.7904211 13.1470789,17.7776277 13.1383608,17.7613263 C13.1296427,17.7450249 13.125,17.7288555 13.125,17.6842657 L13.125,16.6282343 C13.125,16.5836445 13.1296427,16.5674751 13.1383608,16.5511737 C13.1470789,16.5348723 13.1598723,16.5220789 13.1761737,16.5133608 C13.1924751,16.5046427 13.2086445,16.5 13.2532343,16.5 Z M12.3157343,16.5 L12.4342657,16.5 C12.4788555,16.5 12.4950249,16.5046427 12.5113263,16.5133608 C12.5276277,16.5220789 12.5404211,16.5348723 12.5491392,16.5511737 C12.5578573,16.5674751 12.5625,16.5836445 12.5625,16.6282343 L12.5625,17.6842657 C12.5625,17.7288555 12.5578573,17.7450249 12.5491392,17.7613263 C12.5404211,17.7776277 12.5276277,17.7904211 12.5113263,17.7991392 C12.4950249,17.8078573 12.4788555,17.8125 12.4342657,17.8125 L12.3157343,17.8125 C12.2711445,17.8125 12.2549751,17.8078573 12.2386737,17.7991392 C12.2223723,17.7904211 12.2095789,17.7776277 12.2008608,17.7613263 C12.1921427,17.7450249 12.1875,17.7288555 12.1875,17.6842657 L12.1875,16.6282343 C12.1875,16.5836445 12.1921427,16.5674751 12.2008608,16.5511737 C12.2095789,16.5348723 12.2223723,16.5220789 12.2386737,16.5133608 C12.2549751,16.5046427 12.2711445,16.5 12.3157343,16.5 Z M11.3782343,16.5 L11.4967657,16.5 C11.5413555,16.5 11.5575249,16.5046427 11.5738263,16.5133608 C11.5901277,16.5220789 11.6029211,16.5348723 11.6116392,16.5511737 C11.6203573,16.5674751 11.625,16.5836445 11.625,16.6282343 L11.625,17.6842657 C11.625,17.7288555 11.6203573,17.7450249 11.6116392,17.7613263 C11.6029211,17.7776277 11.5901277,17.7904211 11.5738263,17.7991392 C11.5575249,17.8078573 11.5413555,17.8125 11.4967657,17.8125 L11.3782343,17.8125 C11.3336445,17.8125 11.3174751,17.8078573 11.3011737,17.7991392 C11.2848723,17.7904211 11.2720789,17.7776277 11.2633608,17.7613263 C11.2546427,17.7450249 11.25,17.7288555 11.25,17.6842657 L11.25,16.6282343 C11.25,16.5836445 11.2546427,16.5674751 11.2633608,16.5511737 C11.2720789,16.5348723 11.2848723,16.5220789 11.3011737,16.5133608 C11.3174751,16.5046427 11.3336445,16.5 11.3782343,16.5 Z M10.4407343,16.5 L10.5592657,16.5 C10.6038555,16.5 10.6200249,16.5046427 10.6363263,16.5133608 C10.6526277,16.5220789 10.6654211,16.5348723 10.6741392,16.5511737 C10.6828573,16.5674751 10.6875,16.5836445 10.6875,16.6282343 L10.6875,17.6842657 C10.6875,17.7288555 10.6828573,17.7450249 10.6741392,17.7613263 C10.6654211,17.7776277 10.6526277,17.7904211 10.6363263,17.7991392 C10.6200249,17.8078573 10.6038555,17.8125 10.5592657,17.8125 L10.4407343,17.8125 C10.3961445,17.8125 10.3799751,17.8078573 10.3636737,17.7991392 C10.3473723,17.7904211 10.3345789,17.7776277 10.3258608,17.7613263 C10.3171427,17.7450249 10.3125,17.7288555 10.3125,17.6842657 L10.3125,16.6282343 C10.3125,16.5836445 10.3171427,16.5674751 10.3258608,16.5511737 C10.3345789,16.5348723 10.3473723,16.5220789 10.3636737,16.5133608 C10.3799751,16.5046427 10.3961445,16.5 10.4407343,16.5 Z M9.50323432,16.5 L9.62176568,16.5 C9.66635554,16.5 9.68252491,16.5046427 9.6988263,16.5133608 C9.71512769,16.5220789 9.72792111,16.5348723 9.73663919,16.5511737 C9.74535727,16.5674751 9.75,16.5836445 9.75,16.6282343 L9.75,17.6842657 C9.75,17.7288555 9.74535727,17.7450249 9.73663919,17.7613263 C9.72792111,17.7776277 9.71512769,17.7904211 9.6988263,17.7991392 C9.68252491,17.8078573 9.66635554,17.8125 9.62176568,17.8125 L9.50323432,17.8125 C9.45864446,17.8125 9.44247509,17.8078573 9.4261737,17.7991392 C9.40987231,17.7904211 9.39707889,17.7776277 9.38836081,17.7613263 C9.37964273,17.7450249 9.375,17.7288555 9.375,17.6842657 L9.375,16.6282343 C9.375,16.5836445 9.37964273,16.5674751 9.38836081,16.5511737 C9.39707889,16.5348723 9.40987231,16.5220789 9.4261737,16.5133608 C9.44247509,16.5046427 9.45864446,16.5 9.50323432,16.5 Z M8.56573432,16.5 L8.68426568,16.5 C8.72885554,16.5 8.74502491,16.5046427 8.7613263,16.5133608 C8.77762769,16.5220789 8.79042111,16.5348723 8.79913919,16.5511737 C8.80785727,16.5674751 8.8125,16.5836445 8.8125,16.6282343 L8.8125,17.6842657 C8.8125,17.7288555 8.80785727,17.7450249 8.79913919,17.7613263 C8.79042111,17.7776277 8.77762769,17.7904211 8.7613263,17.7991392 C8.74502491,17.8078573 8.72885554,17.8125 8.68426568,17.8125 L8.56573432,17.8125 C8.52114446,17.8125 8.50497509,17.8078573 8.4886737,17.7991392 C8.47237231,17.7904211 8.45957889,17.7776277 8.45086081,17.7613263 C8.44214273,17.7450249 8.4375,17.7288555 8.4375,17.6842657 L8.4375,16.6282343 C8.4375,16.5836445 8.44214273,16.5674751 8.45086081,16.5511737 C8.45957889,16.5348723 8.47237231,16.5220789 8.4886737,16.5133608 C8.50497509,16.5046427 8.52114446,16.5 8.56573432,16.5 Z M7.62823432,16.5 L7.74676568,16.5 C7.79135554,16.5 7.80752491,16.5046427 7.8238263,16.5133608 C7.84012769,16.5220789 7.85292111,16.5348723 7.86163919,16.5511737 C7.87035727,16.5674751 7.875,16.5836445 7.875,16.6282343 L7.875,17.6842657 C7.875,17.7288555 7.87035727,17.7450249 7.86163919,17.7613263 C7.85292111,17.7776277 7.84012769,17.7904211 7.8238263,17.7991392 C7.80752491,17.8078573 7.79135554,17.8125 7.74676568,17.8125 L7.62823432,17.8125 C7.58364446,17.8125 7.56747509,17.8078573 7.5511737,17.7991392 C7.53487231,17.7904211 7.52207889,17.7776277 7.51336081,17.7613263 C7.50464273,17.7450249 7.5,17.7288555 7.5,17.6842657 L7.5,16.6282343 C7.5,16.5836445 7.50464273,16.5674751 7.51336081,16.5511737 C7.52207889,16.5348723 7.53487231,16.5220789 7.5511737,16.5133608 C7.56747509,16.5046427 7.58364446,16.5 7.62823432,16.5 Z M6.69073432,16.5 L6.80926568,16.5 C6.85385554,16.5 6.87002491,16.5046427 6.8863263,16.5133608 C6.90262769,16.5220789 6.91542111,16.5348723 6.92413919,16.5511737 C6.93285727,16.5674751 6.9375,16.5836445 6.9375,16.6282343 L6.9375,17.6842657 C6.9375,17.7288555 6.93285727,17.7450249 6.92413919,17.7613263 C6.91542111,17.7776277 6.90262769,17.7904211 6.8863263,17.7991392 C6.87002491,17.8078573 6.85385554,17.8125 6.80926568,17.8125 L6.69073432,17.8125 C6.64614446,17.8125 6.62997509,17.8078573 6.6136737,17.7991392 C6.59737231,17.7904211 6.58457889,17.7776277 6.57586081,17.7613263 C6.56714273,17.7450249 6.5625,17.7288555 6.5625,17.6842657 L6.5625,16.6282343 C6.5625,16.5836445 6.56714273,16.5674751 6.57586081,16.5511737 C6.58457889,16.5348723 6.59737231,16.5220789 6.6136737,16.5133608 C6.62997509,16.5046427 6.64614446,16.5 6.69073432,16.5 Z M5.75323432,16.5 L5.87176568,16.5 C5.91635554,16.5 5.93252491,16.5046427 5.9488263,16.5133608 C5.96512769,16.5220789 5.97792111,16.5348723 5.98663919,16.5511737 C5.99535727,16.5674751 6,16.5836445 6,16.6282343 L6,17.6842657 C6,17.7288555 5.99535727,17.7450249 5.98663919,17.7613263 C5.97792111,17.7776277 5.96512769,17.7904211 5.9488263,17.7991392 C5.93252491,17.8078573 5.91635554,17.8125 5.87176568,17.8125 L5.75323432,17.8125 C5.70864446,17.8125 5.69247509,17.8078573 5.6761737,17.7991392 C5.65987231,17.7904211 5.64707889,17.7776277 5.63836081,17.7613263 C5.62964273,17.7450249 5.625,17.7288555 5.625,17.6842657 L5.625,16.6282343 C5.625,16.5836445 5.62964273,16.5674751 5.63836081,16.5511737 C5.64707889,16.5348723 5.65987231,16.5220789 5.6761737,16.5133608 C5.69247509,16.5046427 5.70864446,16.5 5.75323432,16.5 Z M4.81573432,16.5 L4.93426568,16.5 C4.97885554,16.5 4.99502491,16.5046427 5.0113263,16.5133608 C5.02762769,16.5220789 5.04042111,16.5348723 5.04913919,16.5511737 C5.05785727,16.5674751 5.0625,16.5836445 5.0625,16.6282343 L5.0625,17.6842657 C5.0625,17.7288555 5.05785727,17.7450249 5.04913919,17.7613263 C5.04042111,17.7776277 5.02762769,17.7904211 5.0113263,17.7991392 C4.99502491,17.8078573 4.97885554,17.8125 4.93426568,17.8125 L4.81573432,17.8125 C4.77114446,17.8125 4.75497509,17.8078573 4.7386737,17.7991392 C4.72237231,17.7904211 4.70957889,17.7776277 4.70086081,17.7613263 C4.69214273,17.7450249 4.6875,17.7288555 4.6875,17.6842657 L4.6875,16.6282343 C4.6875,16.5836445 4.69214273,16.5674751 4.70086081,16.5511737 C4.70957889,16.5348723 4.72237231,16.5220789 4.7386737,16.5133608 C4.75497509,16.5046427 4.77114446,16.5 4.81573432,16.5 Z M15.1282343,1.3125 L15.2467657,1.3125 C15.2913555,1.3125 15.3075249,1.31714273 15.3238263,1.32586081 C15.3401277,1.33457889 15.3529211,1.34737231 15.3616392,1.3636737 C15.3703573,1.37997509 15.375,1.39614446 15.375,1.44073432 L15.375,2.49676568 C15.375,2.54135554 15.3703573,2.55752491 15.3616392,2.5738263 C15.3529211,2.59012769 15.3401277,2.60292111 15.3238263,2.61163919 C15.3075249,2.62035727 15.2913555,2.625 15.2467657,2.625 L15.1282343,2.625 C15.0836445,2.625 15.0674751,2.62035727 15.0511737,2.61163919 C15.0348723,2.60292111 15.0220789,2.59012769 15.0133608,2.5738263 C15.0046427,2.55752491 15,2.54135554 15,2.49676568 L15,1.44073432 C15,1.39614446 15.0046427,1.37997509 15.0133608,1.3636737 C15.0220789,1.34737231 15.0348723,1.33457889 15.0511737,1.32586081 C15.0674751,1.31714273 15.0836445,1.3125 15.1282343,1.3125 Z M14.1907343,1.3125 L14.3092657,1.3125 C14.3538555,1.3125 14.3700249,1.31714273 14.3863263,1.32586081 C14.4026277,1.33457889 14.4154211,1.34737231 14.4241392,1.3636737 C14.4328573,1.37997509 14.4375,1.39614446 14.4375,1.44073432 L14.4375,2.49676568 C14.4375,2.54135554 14.4328573,2.55752491 14.4241392,2.5738263 C14.4154211,2.59012769 14.4026277,2.60292111 14.3863263,2.61163919 C14.3700249,2.62035727 14.3538555,2.625 14.3092657,2.625 L14.1907343,2.625 C14.1461445,2.625 14.1299751,2.62035727 14.1136737,2.61163919 C14.0973723,2.60292111 14.0845789,2.59012769 14.0758608,2.5738263 C14.0671427,2.55752491 14.0625,2.54135554 14.0625,2.49676568 L14.0625,1.44073432 C14.0625,1.39614446 14.0671427,1.37997509 14.0758608,1.3636737 C14.0845789,1.34737231 14.0973723,1.33457889 14.1136737,1.32586081 C14.1299751,1.31714273 14.1461445,1.3125 14.1907343,1.3125 Z M13.2532343,1.3125 L13.3717657,1.3125 C13.4163555,1.3125 13.4325249,1.31714273 13.4488263,1.32586081 C13.4651277,1.33457889 13.4779211,1.34737231 13.4866392,1.3636737 C13.4953573,1.37997509 13.5,1.39614446 13.5,1.44073432 L13.5,2.49676568 C13.5,2.54135554 13.4953573,2.55752491 13.4866392,2.5738263 C13.4779211,2.59012769 13.4651277,2.60292111 13.4488263,2.61163919 C13.4325249,2.62035727 13.4163555,2.625 13.3717657,2.625 L13.2532343,2.625 C13.2086445,2.625 13.1924751,2.62035727 13.1761737,2.61163919 C13.1598723,2.60292111 13.1470789,2.59012769 13.1383608,2.5738263 C13.1296427,2.55752491 13.125,2.54135554 13.125,2.49676568 L13.125,1.44073432 C13.125,1.39614446 13.1296427,1.37997509 13.1383608,1.3636737 C13.1470789,1.34737231 13.1598723,1.33457889 13.1761737,1.32586081 C13.1924751,1.31714273 13.2086445,1.3125 13.2532343,1.3125 Z M12.3157343,1.3125 L12.4342657,1.3125 C12.4788555,1.3125 12.4950249,1.31714273 12.5113263,1.32586081 C12.5276277,1.33457889 12.5404211,1.34737231 12.5491392,1.3636737 C12.5578573,1.37997509 12.5625,1.39614446 12.5625,1.44073432 L12.5625,2.49676568 C12.5625,2.54135554 12.5578573,2.55752491 12.5491392,2.5738263 C12.5404211,2.59012769 12.5276277,2.60292111 12.5113263,2.61163919 C12.4950249,2.62035727 12.4788555,2.625 12.4342657,2.625 L12.3157343,2.625 C12.2711445,2.625 12.2549751,2.62035727 12.2386737,2.61163919 C12.2223723,2.60292111 12.2095789,2.59012769 12.2008608,2.5738263 C12.1921427,2.55752491 12.1875,2.54135554 12.1875,2.49676568 L12.1875,1.44073432 C12.1875,1.39614446 12.1921427,1.37997509 12.2008608,1.3636737 C12.2095789,1.34737231 12.2223723,1.33457889 12.2386737,1.32586081 C12.2549751,1.31714273 12.2711445,1.3125 12.3157343,1.3125 Z M11.3782343,1.3125 L11.4967657,1.3125 C11.5413555,1.3125 11.5575249,1.31714273 11.5738263,1.32586081 C11.5901277,1.33457889 11.6029211,1.34737231 11.6116392,1.3636737 C11.6203573,1.37997509 11.625,1.39614446 11.625,1.44073432 L11.625,2.49676568 C11.625,2.54135554 11.6203573,2.55752491 11.6116392,2.5738263 C11.6029211,2.59012769 11.5901277,2.60292111 11.5738263,2.61163919 C11.5575249,2.62035727 11.5413555,2.625 11.4967657,2.625 L11.3782343,2.625 C11.3336445,2.625 11.3174751,2.62035727 11.3011737,2.61163919 C11.2848723,2.60292111 11.2720789,2.59012769 11.2633608,2.5738263 C11.2546427,2.55752491 11.25,2.54135554 11.25,2.49676568 L11.25,1.44073432 C11.25,1.39614446 11.2546427,1.37997509 11.2633608,1.3636737 C11.2720789,1.34737231 11.2848723,1.33457889 11.3011737,1.32586081 C11.3174751,1.31714273 11.3336445,1.3125 11.3782343,1.3125 Z M10.4407343,1.3125 L10.5592657,1.3125 C10.6038555,1.3125 10.6200249,1.31714273 10.6363263,1.32586081 C10.6526277,1.33457889 10.6654211,1.34737231 10.6741392,1.3636737 C10.6828573,1.37997509 10.6875,1.39614446 10.6875,1.44073432 L10.6875,2.49676568 C10.6875,2.54135554 10.6828573,2.55752491 10.6741392,2.5738263 C10.6654211,2.59012769 10.6526277,2.60292111 10.6363263,2.61163919 C10.6200249,2.62035727 10.6038555,2.625 10.5592657,2.625 L10.4407343,2.625 C10.3961445,2.625 10.3799751,2.62035727 10.3636737,2.61163919 C10.3473723,2.60292111 10.3345789,2.59012769 10.3258608,2.5738263 C10.3171427,2.55752491 10.3125,2.54135554 10.3125,2.49676568 L10.3125,1.44073432 C10.3125,1.39614446 10.3171427,1.37997509 10.3258608,1.3636737 C10.3345789,1.34737231 10.3473723,1.33457889 10.3636737,1.32586081 C10.3799751,1.31714273 10.3961445,1.3125 10.4407343,1.3125 Z M9.50323432,1.3125 L9.62176568,1.3125 C9.66635554,1.3125 9.68252491,1.31714273 9.6988263,1.32586081 C9.71512769,1.33457889 9.72792111,1.34737231 9.73663919,1.3636737 C9.74535727,1.37997509 9.75,1.39614446 9.75,1.44073432 L9.75,2.49676568 C9.75,2.54135554 9.74535727,2.55752491 9.73663919,2.5738263 C9.72792111,2.59012769 9.71512769,2.60292111 9.6988263,2.61163919 C9.68252491,2.62035727 9.66635554,2.625 9.62176568,2.625 L9.50323432,2.625 C9.45864446,2.625 9.44247509,2.62035727 9.4261737,2.61163919 C9.40987231,2.60292111 9.39707889,2.59012769 9.38836081,2.5738263 C9.37964273,2.55752491 9.375,2.54135554 9.375,2.49676568 L9.375,1.44073432 C9.375,1.39614446 9.37964273,1.37997509 9.38836081,1.3636737 C9.39707889,1.34737231 9.40987231,1.33457889 9.4261737,1.32586081 C9.44247509,1.31714273 9.45864446,1.3125 9.50323432,1.3125 Z M8.56573432,1.3125 L8.68426568,1.3125 C8.72885554,1.3125 8.74502491,1.31714273 8.7613263,1.32586081 C8.77762769,1.33457889 8.79042111,1.34737231 8.79913919,1.3636737 C8.80785727,1.37997509 8.8125,1.39614446 8.8125,1.44073432 L8.8125,2.49676568 C8.8125,2.54135554 8.80785727,2.55752491 8.79913919,2.5738263 C8.79042111,2.59012769 8.77762769,2.60292111 8.7613263,2.61163919 C8.74502491,2.62035727 8.72885554,2.625 8.68426568,2.625 L8.56573432,2.625 C8.52114446,2.625 8.50497509,2.62035727 8.4886737,2.61163919 C8.47237231,2.60292111 8.45957889,2.59012769 8.45086081,2.5738263 C8.44214273,2.55752491 8.4375,2.54135554 8.4375,2.49676568 L8.4375,1.44073432 C8.4375,1.39614446 8.44214273,1.37997509 8.45086081,1.3636737 C8.45957889,1.34737231 8.47237231,1.33457889 8.4886737,1.32586081 C8.50497509,1.31714273 8.52114446,1.3125 8.56573432,1.3125 Z M7.62823432,1.3125 L7.74676568,1.3125 C7.79135554,1.3125 7.80752491,1.31714273 7.8238263,1.32586081 C7.84012769,1.33457889 7.85292111,1.34737231 7.86163919,1.3636737 C7.87035727,1.37997509 7.875,1.39614446 7.875,1.44073432 L7.875,2.49676568 C7.875,2.54135554 7.87035727,2.55752491 7.86163919,2.5738263 C7.85292111,2.59012769 7.84012769,2.60292111 7.8238263,2.61163919 C7.80752491,2.62035727 7.79135554,2.625 7.74676568,2.625 L7.62823432,2.625 C7.58364446,2.625 7.56747509,2.62035727 7.5511737,2.61163919 C7.53487231,2.60292111 7.52207889,2.59012769 7.51336081,2.5738263 C7.50464273,2.55752491 7.5,2.54135554 7.5,2.49676568 L7.5,1.44073432 C7.5,1.39614446 7.50464273,1.37997509 7.51336081,1.3636737 C7.52207889,1.34737231 7.53487231,1.33457889 7.5511737,1.32586081 C7.56747509,1.31714273 7.58364446,1.3125 7.62823432,1.3125 Z M6.69073432,1.3125 L6.80926568,1.3125 C6.85385554,1.3125 6.87002491,1.31714273 6.8863263,1.32586081 C6.90262769,1.33457889 6.91542111,1.34737231 6.92413919,1.3636737 C6.93285727,1.37997509 6.9375,1.39614446 6.9375,1.44073432 L6.9375,2.49676568 C6.9375,2.54135554 6.93285727,2.55752491 6.92413919,2.5738263 C6.91542111,2.59012769 6.90262769,2.60292111 6.8863263,2.61163919 C6.87002491,2.62035727 6.85385554,2.625 6.80926568,2.625 L6.69073432,2.625 C6.64614446,2.625 6.62997509,2.62035727 6.6136737,2.61163919 C6.59737231,2.60292111 6.58457889,2.59012769 6.57586081,2.5738263 C6.56714273,2.55752491 6.5625,2.54135554 6.5625,2.49676568 L6.5625,1.44073432 C6.5625,1.39614446 6.56714273,1.37997509 6.57586081,1.3636737 C6.58457889,1.34737231 6.59737231,1.33457889 6.6136737,1.32586081 C6.62997509,1.31714273 6.64614446,1.3125 6.69073432,1.3125 Z M5.75323432,1.3125 L5.87176568,1.3125 C5.91635554,1.3125 5.93252491,1.31714273 5.9488263,1.32586081 C5.96512769,1.33457889 5.97792111,1.34737231 5.98663919,1.3636737 C5.99535727,1.37997509 6,1.39614446 6,1.44073432 L6,2.49676568 C6,2.54135554 5.99535727,2.55752491 5.98663919,2.5738263 C5.97792111,2.59012769 5.96512769,2.60292111 5.9488263,2.61163919 C5.93252491,2.62035727 5.91635554,2.625 5.87176568,2.625 L5.75323432,2.625 C5.70864446,2.625 5.69247509,2.62035727 5.6761737,2.61163919 C5.65987231,2.60292111 5.64707889,2.59012769 5.63836081,2.5738263 C5.62964273,2.55752491 5.625,2.54135554 5.625,2.49676568 L5.625,1.44073432 C5.625,1.39614446 5.62964273,1.37997509 5.63836081,1.3636737 C5.64707889,1.34737231 5.65987231,1.33457889 5.6761737,1.32586081 C5.69247509,1.31714273 5.70864446,1.3125 5.75323432,1.3125 Z M4.81573432,1.3125 L4.93426568,1.3125 C4.97885554,1.3125 4.99502491,1.31714273 5.0113263,1.32586081 C5.02762769,1.33457889 5.04042111,1.34737231 5.04913919,1.3636737 C5.05785727,1.37997509 5.0625,1.39614446 5.0625,1.44073432 L5.0625,2.49676568 C5.0625,2.54135554 5.05785727,2.55752491 5.04913919,2.5738263 C5.04042111,2.59012769 5.02762769,2.60292111 5.0113263,2.61163919 C4.99502491,2.62035727 4.97885554,2.625 4.93426568,2.625 L4.81573432,2.625 C4.77114446,2.625 4.75497509,2.62035727 4.7386737,2.61163919 C4.72237231,2.60292111 4.70957889,2.59012769 4.70086081,2.5738263 C4.69214273,2.55752491 4.6875,2.54135554 4.6875,2.49676568 L4.6875,1.44073432 C4.6875,1.39614446 4.69214273,1.37997509 4.70086081,1.3636737 C4.70957889,1.34737231 4.72237231,1.33457889 4.7386737,1.32586081 C4.75497509,1.31714273 4.77114446,1.3125 4.81573432,1.3125 Z" id="path-7"></path>
        <filter x="-4.7%" y="-3.0%" width="109.4%" height="106.1%" filterUnits="objectBoundingBox" id="filter-8">
            <feOffset dx="0" dy="1" in="SourceAlpha" result="shadowOffsetInner1"></feOffset>
            <feComposite in="shadowOffsetInner1" in2="SourceAlpha" operator="arithmetic" k2="-1" k3="1" result="shadowInnerInner1"></feComposite>
            <feColorMatrix values="0 0 0 0 0.926828578   0 0 0 0 0.558558022   0 0 0 0 0  0 0 0 0.55 0" type="matrix" in="shadowInnerInner1"></feColorMatrix>
        </filter>
        <linearGradient x1="30.5150417%" y1="7.88270325%" x2="69.4849583%" y2="92.0591191%" id="linearGradient-9">
            <stop stop-color="#E2D46C" offset="0%"></stop>
            <stop stop-color="#D7BC26" offset="18.1492935%"></stop>
            <stop stop-color="#CFB009" offset="38.885663%"></stop>
            <stop stop-color="#E7BF00" offset="56.4734084%"></stop>
            <stop stop-color="#D5B630" offset="70.4022382%"></stop>
            <stop stop-color="#C9A10A" offset="83.4427313%"></stop>
            <stop stop-color="#C2A422" offset="100%"></stop>
        </linearGradient>
        <path d="M15.0749673,16.821733 L15.1934986,16.821733 C15.2380885,16.821733 15.2542579,16.8263757 15.2705593,16.8350938 C15.2868606,16.8438118 15.2996541,16.8566053 15.3083721,16.8729067 C15.3170902,16.889208 15.321733,16.9053774 15.321733,16.9499673 L15.321733,18.0059986 C15.321733,18.0505885 15.3170902,18.0667579 15.3083721,18.0830593 C15.2996541,18.0993606 15.2868606,18.1121541 15.2705593,18.1208721 C15.2542579,18.1295902 15.2380885,18.134233 15.1934986,18.134233 L15.0749673,18.134233 C15.0303774,18.134233 15.014208,18.1295902 14.9979067,18.1208721 C14.9816053,18.1121541 14.9688118,18.0993606 14.9600938,18.0830593 C14.9513757,18.0667579 14.946733,18.0505885 14.946733,18.0059986 L14.946733,16.9499673 C14.946733,16.9053774 14.9513757,16.889208 14.9600938,16.8729067 C14.9688118,16.8566053 14.9816053,16.8438118 14.9979067,16.8350938 C15.014208,16.8263757 15.0303774,16.821733 15.0749673,16.821733 Z M14.1374673,16.821733 L14.2559986,16.821733 C14.3005885,16.821733 14.3167579,16.8263757 14.3330593,16.8350938 C14.3493606,16.8438118 14.3621541,16.8566053 14.3708721,16.8729067 C14.3795902,16.889208 14.384233,16.9053774 14.384233,16.9499673 L14.384233,18.0059986 C14.384233,18.0505885 14.3795902,18.0667579 14.3708721,18.0830593 C14.3621541,18.0993606 14.3493606,18.1121541 14.3330593,18.1208721 C14.3167579,18.1295902 14.3005885,18.134233 14.2559986,18.134233 L14.1374673,18.134233 C14.0928774,18.134233 14.076708,18.1295902 14.0604067,18.1208721 C14.0441053,18.1121541 14.0313118,18.0993606 14.0225938,18.0830593 C14.0138757,18.0667579 14.009233,18.0505885 14.009233,18.0059986 L14.009233,16.9499673 C14.009233,16.9053774 14.0138757,16.889208 14.0225938,16.8729067 C14.0313118,16.8566053 14.0441053,16.8438118 14.0604067,16.8350938 C14.076708,16.8263757 14.0928774,16.821733 14.1374673,16.821733 Z M13.1999673,16.821733 L13.3184986,16.821733 C13.3630885,16.821733 13.3792579,16.8263757 13.3955593,16.8350938 C13.4118606,16.8438118 13.4246541,16.8566053 13.4333721,16.8729067 C13.4420902,16.889208 13.446733,16.9053774 13.446733,16.9499673 L13.446733,18.0059986 C13.446733,18.0505885 13.4420902,18.0667579 13.4333721,18.0830593 C13.4246541,18.0993606 13.4118606,18.1121541 13.3955593,18.1208721 C13.3792579,18.1295902 13.3630885,18.134233 13.3184986,18.134233 L13.1999673,18.134233 C13.1553774,18.134233 13.139208,18.1295902 13.1229067,18.1208721 C13.1066053,18.1121541 13.0938118,18.0993606 13.0850938,18.0830593 C13.0763757,18.0667579 13.071733,18.0505885 13.071733,18.0059986 L13.071733,16.9499673 C13.071733,16.9053774 13.0763757,16.889208 13.0850938,16.8729067 C13.0938118,16.8566053 13.1066053,16.8438118 13.1229067,16.8350938 C13.139208,16.8263757 13.1553774,16.821733 13.1999673,16.821733 Z M12.2624673,16.821733 L12.3809986,16.821733 C12.4255885,16.821733 12.4417579,16.8263757 12.4580593,16.8350938 C12.4743606,16.8438118 12.4871541,16.8566053 12.4958721,16.8729067 C12.5045902,16.889208 12.509233,16.9053774 12.509233,16.9499673 L12.509233,18.0059986 C12.509233,18.0505885 12.5045902,18.0667579 12.4958721,18.0830593 C12.4871541,18.0993606 12.4743606,18.1121541 12.4580593,18.1208721 C12.4417579,18.1295902 12.4255885,18.134233 12.3809986,18.134233 L12.2624673,18.134233 C12.2178774,18.134233 12.201708,18.1295902 12.1854067,18.1208721 C12.1691053,18.1121541 12.1563118,18.0993606 12.1475938,18.0830593 C12.1388757,18.0667579 12.134233,18.0505885 12.134233,18.0059986 L12.134233,16.9499673 C12.134233,16.9053774 12.1388757,16.889208 12.1475938,16.8729067 C12.1563118,16.8566053 12.1691053,16.8438118 12.1854067,16.8350938 C12.201708,16.8263757 12.2178774,16.821733 12.2624673,16.821733 Z M11.3249673,16.821733 L11.4434986,16.821733 C11.4880885,16.821733 11.5042579,16.8263757 11.5205593,16.8350938 C11.5368606,16.8438118 11.5496541,16.8566053 11.5583721,16.8729067 C11.5670902,16.889208 11.571733,16.9053774 11.571733,16.9499673 L11.571733,18.0059986 C11.571733,18.0505885 11.5670902,18.0667579 11.5583721,18.0830593 C11.5496541,18.0993606 11.5368606,18.1121541 11.5205593,18.1208721 C11.5042579,18.1295902 11.4880885,18.134233 11.4434986,18.134233 L11.3249673,18.134233 C11.2803774,18.134233 11.264208,18.1295902 11.2479067,18.1208721 C11.2316053,18.1121541 11.2188118,18.0993606 11.2100938,18.0830593 C11.2013757,18.0667579 11.196733,18.0505885 11.196733,18.0059986 L11.196733,16.9499673 C11.196733,16.9053774 11.2013757,16.889208 11.2100938,16.8729067 C11.2188118,16.8566053 11.2316053,16.8438118 11.2479067,16.8350938 C11.264208,16.8263757 11.2803774,16.821733 11.3249673,16.821733 Z M10.3874673,16.821733 L10.5059986,16.821733 C10.5505885,16.821733 10.5667579,16.8263757 10.5830593,16.8350938 C10.5993606,16.8438118 10.6121541,16.8566053 10.6208721,16.8729067 C10.6295902,16.889208 10.634233,16.9053774 10.634233,16.9499673 L10.634233,18.0059986 C10.634233,18.0505885 10.6295902,18.0667579 10.6208721,18.0830593 C10.6121541,18.0993606 10.5993606,18.1121541 10.5830593,18.1208721 C10.5667579,18.1295902 10.5505885,18.134233 10.5059986,18.134233 L10.3874673,18.134233 C10.3428774,18.134233 10.326708,18.1295902 10.3104067,18.1208721 C10.2941053,18.1121541 10.2813118,18.0993606 10.2725938,18.0830593 C10.2638757,18.0667579 10.259233,18.0505885 10.259233,18.0059986 L10.259233,16.9499673 C10.259233,16.9053774 10.2638757,16.889208 10.2725938,16.8729067 C10.2813118,16.8566053 10.2941053,16.8438118 10.3104067,16.8350938 C10.326708,16.8263757 10.3428774,16.821733 10.3874673,16.821733 Z M9.44996728,16.821733 L9.56849863,16.821733 C9.6130885,16.821733 9.62925786,16.8263757 9.64555925,16.8350938 C9.66186064,16.8438118 9.67465407,16.8566053 9.68337215,16.8729067 C9.69209022,16.889208 9.69673295,16.9053774 9.69673295,16.9499673 L9.69673295,18.0059986 C9.69673295,18.0505885 9.69209022,18.0667579 9.68337215,18.0830593 C9.67465407,18.0993606 9.66186064,18.1121541 9.64555925,18.1208721 C9.62925786,18.1295902 9.6130885,18.134233 9.56849863,18.134233 L9.44996728,18.134233 C9.40537741,18.134233 9.38920805,18.1295902 9.37290666,18.1208721 C9.35660527,18.1121541 9.34381184,18.0993606 9.33509376,18.0830593 C9.32637569,18.0667579 9.32173295,18.0505885 9.32173295,18.0059986 L9.32173295,16.9499673 C9.32173295,16.9053774 9.32637569,16.889208 9.33509376,16.8729067 C9.34381184,16.8566053 9.35660527,16.8438118 9.37290666,16.8350938 C9.38920805,16.8263757 9.40537741,16.821733 9.44996728,16.821733 Z M8.51246728,16.821733 L8.63099863,16.821733 C8.6755885,16.821733 8.69175786,16.8263757 8.70805925,16.8350938 C8.72436064,16.8438118 8.73715407,16.8566053 8.74587215,16.8729067 C8.75459022,16.889208 8.75923295,16.9053774 8.75923295,16.9499673 L8.75923295,18.0059986 C8.75923295,18.0505885 8.75459022,18.0667579 8.74587215,18.0830593 C8.73715407,18.0993606 8.72436064,18.1121541 8.70805925,18.1208721 C8.69175786,18.1295902 8.6755885,18.134233 8.63099863,18.134233 L8.51246728,18.134233 C8.46787741,18.134233 8.45170805,18.1295902 8.43540666,18.1208721 C8.41910527,18.1121541 8.40631184,18.0993606 8.39759376,18.0830593 C8.38887569,18.0667579 8.38423295,18.0505885 8.38423295,18.0059986 L8.38423295,16.9499673 C8.38423295,16.9053774 8.38887569,16.889208 8.39759376,16.8729067 C8.40631184,16.8566053 8.41910527,16.8438118 8.43540666,16.8350938 C8.45170805,16.8263757 8.46787741,16.821733 8.51246728,16.821733 Z M7.57496728,16.821733 L7.69349863,16.821733 C7.7380885,16.821733 7.75425786,16.8263757 7.77055925,16.8350938 C7.78686064,16.8438118 7.79965407,16.8566053 7.80837215,16.8729067 C7.81709022,16.889208 7.82173295,16.9053774 7.82173295,16.9499673 L7.82173295,18.0059986 C7.82173295,18.0505885 7.81709022,18.0667579 7.80837215,18.0830593 C7.79965407,18.0993606 7.78686064,18.1121541 7.77055925,18.1208721 C7.75425786,18.1295902 7.7380885,18.134233 7.69349863,18.134233 L7.57496728,18.134233 C7.53037741,18.134233 7.51420805,18.1295902 7.49790666,18.1208721 C7.48160527,18.1121541 7.46881184,18.0993606 7.46009376,18.0830593 C7.45137569,18.0667579 7.44673295,18.0505885 7.44673295,18.0059986 L7.44673295,16.9499673 C7.44673295,16.9053774 7.45137569,16.889208 7.46009376,16.8729067 C7.46881184,16.8566053 7.48160527,16.8438118 7.49790666,16.8350938 C7.51420805,16.8263757 7.53037741,16.821733 7.57496728,16.821733 Z M6.63746728,16.821733 L6.75599863,16.821733 C6.8005885,16.821733 6.81675786,16.8263757 6.83305925,16.8350938 C6.84936064,16.8438118 6.86215407,16.8566053 6.87087215,16.8729067 C6.87959022,16.889208 6.88423295,16.9053774 6.88423295,16.9499673 L6.88423295,18.0059986 C6.88423295,18.0505885 6.87959022,18.0667579 6.87087215,18.0830593 C6.86215407,18.0993606 6.84936064,18.1121541 6.83305925,18.1208721 C6.81675786,18.1295902 6.8005885,18.134233 6.75599863,18.134233 L6.63746728,18.134233 C6.59287741,18.134233 6.57670805,18.1295902 6.56040666,18.1208721 C6.54410527,18.1121541 6.53131184,18.0993606 6.52259376,18.0830593 C6.51387569,18.0667579 6.50923295,18.0505885 6.50923295,18.0059986 L6.50923295,16.9499673 C6.50923295,16.9053774 6.51387569,16.889208 6.52259376,16.8729067 C6.53131184,16.8566053 6.54410527,16.8438118 6.56040666,16.8350938 C6.57670805,16.8263757 6.59287741,16.821733 6.63746728,16.821733 Z M5.69996728,16.821733 L5.81849863,16.821733 C5.8630885,16.821733 5.87925786,16.8263757 5.89555925,16.8350938 C5.91186064,16.8438118 5.92465407,16.8566053 5.93337215,16.8729067 C5.94209022,16.889208 5.94673295,16.9053774 5.94673295,16.9499673 L5.94673295,18.0059986 C5.94673295,18.0505885 5.94209022,18.0667579 5.93337215,18.0830593 C5.92465407,18.0993606 5.91186064,18.1121541 5.89555925,18.1208721 C5.87925786,18.1295902 5.8630885,18.134233 5.81849863,18.134233 L5.69996728,18.134233 C5.65537741,18.134233 5.63920805,18.1295902 5.62290666,18.1208721 C5.60660527,18.1121541 5.59381184,18.0993606 5.58509376,18.0830593 C5.57637569,18.0667579 5.57173295,18.0505885 5.57173295,18.0059986 L5.57173295,16.9499673 C5.57173295,16.9053774 5.57637569,16.889208 5.58509376,16.8729067 C5.59381184,16.8566053 5.60660527,16.8438118 5.62290666,16.8350938 C5.63920805,16.8263757 5.65537741,16.821733 5.69996728,16.821733 Z M4.76246728,16.821733 L4.88099863,16.821733 C4.9255885,16.821733 4.94175786,16.8263757 4.95805925,16.8350938 C4.97436064,16.8438118 4.98715407,16.8566053 4.99587215,16.8729067 C5.00459022,16.889208 5.00923295,16.9053774 5.00923295,16.9499673 L5.00923295,18.0059986 C5.00923295,18.0505885 5.00459022,18.0667579 4.99587215,18.0830593 C4.98715407,18.0993606 4.97436064,18.1121541 4.95805925,18.1208721 C4.94175786,18.1295902 4.9255885,18.134233 4.88099863,18.134233 L4.76246728,18.134233 C4.71787741,18.134233 4.70170805,18.1295902 4.68540666,18.1208721 C4.66910527,18.1121541 4.65631184,18.0993606 4.64759376,18.0830593 C4.63887569,18.0667579 4.63423295,18.0505885 4.63423295,18.0059986 L4.63423295,16.9499673 C4.63423295,16.9053774 4.63887569,16.889208 4.64759376,16.8729067 C4.65631184,16.8566053 4.66910527,16.8438118 4.68540666,16.8350938 C4.70170805,16.8263757 4.71787741,16.821733 4.76246728,16.821733 Z M15.0749673,0.884232955 L15.1934986,0.884232955 C15.2380885,0.884232955 15.2542579,0.888875686 15.2705593,0.897593764 C15.2868606,0.906311843 15.2996541,0.919105268 15.3083721,0.935406658 C15.3170902,0.951708047 15.321733,0.967877411 15.321733,1.01246728 L15.321733,2.06849863 C15.321733,2.1130885 15.3170902,2.12925786 15.3083721,2.14555925 C15.2996541,2.16186064 15.2868606,2.17465407 15.2705593,2.18337215 C15.2542579,2.19209022 15.2380885,2.19673295 15.1934986,2.19673295 L15.0749673,2.19673295 C15.0303774,2.19673295 15.014208,2.19209022 14.9979067,2.18337215 C14.9816053,2.17465407 14.9688118,2.16186064 14.9600938,2.14555925 C14.9513757,2.12925786 14.946733,2.1130885 14.946733,2.06849863 L14.946733,1.01246728 C14.946733,0.967877411 14.9513757,0.951708047 14.9600938,0.935406658 C14.9688118,0.919105268 14.9816053,0.906311843 14.9979067,0.897593764 C15.014208,0.888875686 15.0303774,0.884232955 15.0749673,0.884232955 Z M14.1374673,0.884232955 L14.2559986,0.884232955 C14.3005885,0.884232955 14.3167579,0.888875686 14.3330593,0.897593764 C14.3493606,0.906311843 14.3621541,0.919105268 14.3708721,0.935406658 C14.3795902,0.951708047 14.384233,0.967877411 14.384233,1.01246728 L14.384233,2.06849863 C14.384233,2.1130885 14.3795902,2.12925786 14.3708721,2.14555925 C14.3621541,2.16186064 14.3493606,2.17465407 14.3330593,2.18337215 C14.3167579,2.19209022 14.3005885,2.19673295 14.2559986,2.19673295 L14.1374673,2.19673295 C14.0928774,2.19673295 14.076708,2.19209022 14.0604067,2.18337215 C14.0441053,2.17465407 14.0313118,2.16186064 14.0225938,2.14555925 C14.0138757,2.12925786 14.009233,2.1130885 14.009233,2.06849863 L14.009233,1.01246728 C14.009233,0.967877411 14.0138757,0.951708047 14.0225938,0.935406658 C14.0313118,0.919105268 14.0441053,0.906311843 14.0604067,0.897593764 C14.076708,0.888875686 14.0928774,0.884232955 14.1374673,0.884232955 Z M13.1999673,0.884232955 L13.3184986,0.884232955 C13.3630885,0.884232955 13.3792579,0.888875686 13.3955593,0.897593764 C13.4118606,0.906311843 13.4246541,0.919105268 13.4333721,0.935406658 C13.4420902,0.951708047 13.446733,0.967877411 13.446733,1.01246728 L13.446733,2.06849863 C13.446733,2.1130885 13.4420902,2.12925786 13.4333721,2.14555925 C13.4246541,2.16186064 13.4118606,2.17465407 13.3955593,2.18337215 C13.3792579,2.19209022 13.3630885,2.19673295 13.3184986,2.19673295 L13.1999673,2.19673295 C13.1553774,2.19673295 13.139208,2.19209022 13.1229067,2.18337215 C13.1066053,2.17465407 13.0938118,2.16186064 13.0850938,2.14555925 C13.0763757,2.12925786 13.071733,2.1130885 13.071733,2.06849863 L13.071733,1.01246728 C13.071733,0.967877411 13.0763757,0.951708047 13.0850938,0.935406658 C13.0938118,0.919105268 13.1066053,0.906311843 13.1229067,0.897593764 C13.139208,0.888875686 13.1553774,0.884232955 13.1999673,0.884232955 Z M12.2624673,0.884232955 L12.3809986,0.884232955 C12.4255885,0.884232955 12.4417579,0.888875686 12.4580593,0.897593764 C12.4743606,0.906311843 12.4871541,0.919105268 12.4958721,0.935406658 C12.5045902,0.951708047 12.509233,0.967877411 12.509233,1.01246728 L12.509233,2.06849863 C12.509233,2.1130885 12.5045902,2.12925786 12.4958721,2.14555925 C12.4871541,2.16186064 12.4743606,2.17465407 12.4580593,2.18337215 C12.4417579,2.19209022 12.4255885,2.19673295 12.3809986,2.19673295 L12.2624673,2.19673295 C12.2178774,2.19673295 12.201708,2.19209022 12.1854067,2.18337215 C12.1691053,2.17465407 12.1563118,2.16186064 12.1475938,2.14555925 C12.1388757,2.12925786 12.134233,2.1130885 12.134233,2.06849863 L12.134233,1.01246728 C12.134233,0.967877411 12.1388757,0.951708047 12.1475938,0.935406658 C12.1563118,0.919105268 12.1691053,0.906311843 12.1854067,0.897593764 C12.201708,0.888875686 12.2178774,0.884232955 12.2624673,0.884232955 Z M11.3249673,0.884232955 L11.4434986,0.884232955 C11.4880885,0.884232955 11.5042579,0.888875686 11.5205593,0.897593764 C11.5368606,0.906311843 11.5496541,0.919105268 11.5583721,0.935406658 C11.5670902,0.951708047 11.571733,0.967877411 11.571733,1.01246728 L11.571733,2.06849863 C11.571733,2.1130885 11.5670902,2.12925786 11.5583721,2.14555925 C11.5496541,2.16186064 11.5368606,2.17465407 11.5205593,2.18337215 C11.5042579,2.19209022 11.4880885,2.19673295 11.4434986,2.19673295 L11.3249673,2.19673295 C11.2803774,2.19673295 11.264208,2.19209022 11.2479067,2.18337215 C11.2316053,2.17465407 11.2188118,2.16186064 11.2100938,2.14555925 C11.2013757,2.12925786 11.196733,2.1130885 11.196733,2.06849863 L11.196733,1.01246728 C11.196733,0.967877411 11.2013757,0.951708047 11.2100938,0.935406658 C11.2188118,0.919105268 11.2316053,0.906311843 11.2479067,0.897593764 C11.264208,0.888875686 11.2803774,0.884232955 11.3249673,0.884232955 Z M10.3874673,0.884232955 L10.5059986,0.884232955 C10.5505885,0.884232955 10.5667579,0.888875686 10.5830593,0.897593764 C10.5993606,0.906311843 10.6121541,0.919105268 10.6208721,0.935406658 C10.6295902,0.951708047 10.634233,0.967877411 10.634233,1.01246728 L10.634233,2.06849863 C10.634233,2.1130885 10.6295902,2.12925786 10.6208721,2.14555925 C10.6121541,2.16186064 10.5993606,2.17465407 10.5830593,2.18337215 C10.5667579,2.19209022 10.5505885,2.19673295 10.5059986,2.19673295 L10.3874673,2.19673295 C10.3428774,2.19673295 10.326708,2.19209022 10.3104067,2.18337215 C10.2941053,2.17465407 10.2813118,2.16186064 10.2725938,2.14555925 C10.2638757,2.12925786 10.259233,2.1130885 10.259233,2.06849863 L10.259233,1.01246728 C10.259233,0.967877411 10.2638757,0.951708047 10.2725938,0.935406658 C10.2813118,0.919105268 10.2941053,0.906311843 10.3104067,0.897593764 C10.326708,0.888875686 10.3428774,0.884232955 10.3874673,0.884232955 Z M9.44996728,0.884232955 L9.56849863,0.884232955 C9.6130885,0.884232955 9.62925786,0.888875686 9.64555925,0.897593764 C9.66186064,0.906311843 9.67465407,0.919105268 9.68337215,0.935406658 C9.69209022,0.951708047 9.69673295,0.967877411 9.69673295,1.01246728 L9.69673295,2.06849863 C9.69673295,2.1130885 9.69209022,2.12925786 9.68337215,2.14555925 C9.67465407,2.16186064 9.66186064,2.17465407 9.64555925,2.18337215 C9.62925786,2.19209022 9.6130885,2.19673295 9.56849863,2.19673295 L9.44996728,2.19673295 C9.40537741,2.19673295 9.38920805,2.19209022 9.37290666,2.18337215 C9.35660527,2.17465407 9.34381184,2.16186064 9.33509376,2.14555925 C9.32637569,2.12925786 9.32173295,2.1130885 9.32173295,2.06849863 L9.32173295,1.01246728 C9.32173295,0.967877411 9.32637569,0.951708047 9.33509376,0.935406658 C9.34381184,0.919105268 9.35660527,0.906311843 9.37290666,0.897593764 C9.38920805,0.888875686 9.40537741,0.884232955 9.44996728,0.884232955 Z M8.51246728,0.884232955 L8.63099863,0.884232955 C8.6755885,0.884232955 8.69175786,0.888875686 8.70805925,0.897593764 C8.72436064,0.906311843 8.73715407,0.919105268 8.74587215,0.935406658 C8.75459022,0.951708047 8.75923295,0.967877411 8.75923295,1.01246728 L8.75923295,2.06849863 C8.75923295,2.1130885 8.75459022,2.12925786 8.74587215,2.14555925 C8.73715407,2.16186064 8.72436064,2.17465407 8.70805925,2.18337215 C8.69175786,2.19209022 8.6755885,2.19673295 8.63099863,2.19673295 L8.51246728,2.19673295 C8.46787741,2.19673295 8.45170805,2.19209022 8.43540666,2.18337215 C8.41910527,2.17465407 8.40631184,2.16186064 8.39759376,2.14555925 C8.38887569,2.12925786 8.38423295,2.1130885 8.38423295,2.06849863 L8.38423295,1.01246728 C8.38423295,0.967877411 8.38887569,0.951708047 8.39759376,0.935406658 C8.40631184,0.919105268 8.41910527,0.906311843 8.43540666,0.897593764 C8.45170805,0.888875686 8.46787741,0.884232955 8.51246728,0.884232955 Z M7.57496728,0.884232955 L7.69349863,0.884232955 C7.7380885,0.884232955 7.75425786,0.888875686 7.77055925,0.897593764 C7.78686064,0.906311843 7.79965407,0.919105268 7.80837215,0.935406658 C7.81709022,0.951708047 7.82173295,0.967877411 7.82173295,1.01246728 L7.82173295,2.06849863 C7.82173295,2.1130885 7.81709022,2.12925786 7.80837215,2.14555925 C7.79965407,2.16186064 7.78686064,2.17465407 7.77055925,2.18337215 C7.75425786,2.19209022 7.7380885,2.19673295 7.69349863,2.19673295 L7.57496728,2.19673295 C7.53037741,2.19673295 7.51420805,2.19209022 7.49790666,2.18337215 C7.48160527,2.17465407 7.46881184,2.16186064 7.46009376,2.14555925 C7.45137569,2.12925786 7.44673295,2.1130885 7.44673295,2.06849863 L7.44673295,1.01246728 C7.44673295,0.967877411 7.45137569,0.951708047 7.46009376,0.935406658 C7.46881184,0.919105268 7.48160527,0.906311843 7.49790666,0.897593764 C7.51420805,0.888875686 7.53037741,0.884232955 7.57496728,0.884232955 Z M6.63746728,0.884232955 L6.75599863,0.884232955 C6.8005885,0.884232955 6.81675786,0.888875686 6.83305925,0.897593764 C6.84936064,0.906311843 6.86215407,0.919105268 6.87087215,0.935406658 C6.87959022,0.951708047 6.88423295,0.967877411 6.88423295,1.01246728 L6.88423295,2.06849863 C6.88423295,2.1130885 6.87959022,2.12925786 6.87087215,2.14555925 C6.86215407,2.16186064 6.84936064,2.17465407 6.83305925,2.18337215 C6.81675786,2.19209022 6.8005885,2.19673295 6.75599863,2.19673295 L6.63746728,2.19673295 C6.59287741,2.19673295 6.57670805,2.19209022 6.56040666,2.18337215 C6.54410527,2.17465407 6.53131184,2.16186064 6.52259376,2.14555925 C6.51387569,2.12925786 6.50923295,2.1130885 6.50923295,2.06849863 L6.50923295,1.01246728 C6.50923295,0.967877411 6.51387569,0.951708047 6.52259376,0.935406658 C6.53131184,0.919105268 6.54410527,0.906311843 6.56040666,0.897593764 C6.57670805,0.888875686 6.59287741,0.884232955 6.63746728,0.884232955 Z M5.69996728,0.884232955 L5.81849863,0.884232955 C5.8630885,0.884232955 5.87925786,0.888875686 5.89555925,0.897593764 C5.91186064,0.906311843 5.92465407,0.919105268 5.93337215,0.935406658 C5.94209022,0.951708047 5.94673295,0.967877411 5.94673295,1.01246728 L5.94673295,2.06849863 C5.94673295,2.1130885 5.94209022,2.12925786 5.93337215,2.14555925 C5.92465407,2.16186064 5.91186064,2.17465407 5.89555925,2.18337215 C5.87925786,2.19209022 5.8630885,2.19673295 5.81849863,2.19673295 L5.69996728,2.19673295 C5.65537741,2.19673295 5.63920805,2.19209022 5.62290666,2.18337215 C5.60660527,2.17465407 5.59381184,2.16186064 5.58509376,2.14555925 C5.57637569,2.12925786 5.57173295,2.1130885 5.57173295,2.06849863 L5.57173295,1.01246728 C5.57173295,0.967877411 5.57637569,0.951708047 5.58509376,0.935406658 C5.59381184,0.919105268 5.60660527,0.906311843 5.62290666,0.897593764 C5.63920805,0.888875686 5.65537741,0.884232955 5.69996728,0.884232955 Z M4.76246728,0.884232955 L4.88099863,0.884232955 C4.9255885,0.884232955 4.94175786,0.888875686 4.95805925,0.897593764 C4.97436064,0.906311843 4.98715407,0.919105268 4.99587215,0.935406658 C5.00459022,0.951708047 5.00923295,0.967877411 5.00923295,1.01246728 L5.00923295,2.06849863 C5.00923295,2.1130885 5.00459022,2.12925786 4.99587215,2.14555925 C4.98715407,2.16186064 4.97436064,2.17465407 4.95805925,2.18337215 C4.94175786,2.19209022 4.9255885,2.19673295 4.88099863,2.19673295 L4.76246728,2.19673295 C4.71787741,2.19673295 4.70170805,2.19209022 4.68540666,2.18337215 C4.66910527,2.17465407 4.65631184,2.16186064 4.64759376,2.14555925 C4.63887569,2.12925786 4.63423295,2.1130885 4.63423295,2.06849863 L4.63423295,1.01246728 C4.63423295,0.967877411 4.63887569,0.951708047 4.64759376,0.935406658 C4.65631184,0.919105268 4.66910527,0.906311843 4.68540666,0.897593764 C4.70170805,0.888875686 4.71787741,0.884232955 4.76246728,0.884232955 Z" id="path-10"></path>
        <filter x="-3.9%" y="-2.9%" width="108.5%" height="105.8%" filterUnits="objectBoundingBox" id="filter-11">
            <feOffset dx="0" dy="1" in="SourceAlpha" result="shadowOffsetInner1"></feOffset>
            <feComposite in="shadowOffsetInner1" in2="SourceAlpha" operator="arithmetic" k2="-1" k3="1" result="shadowInnerInner1"></feComposite>
            <feColorMatrix values="0 0 0 0 0.926828578   0 0 0 0 0.558558022   0 0 0 0 0  0 0 0 0.55 0" type="matrix" in="shadowInnerInner1"></feColorMatrix>
        </filter>
        <linearGradient x1="25.7071738%" y1="2.42755628%" x2="75.490452%" y2="98.789294%" id="linearGradient-12">
            <stop stop-color="#3FFFCF" offset="0.0686233108%"></stop>
            <stop stop-color="#0070FF" offset="100%"></stop>
        </linearGradient>
        <path d="M3.34484322,2.25 L16.5301568,2.25 C16.9760555,2.25 17.1377491,2.29642731 17.300763,2.38360809 C17.4637769,2.47078887 17.5917111,2.59872313 17.6788919,2.76173702 C17.7660727,2.92475091 17.8125,3.08644454 17.8125,3.53234322 L17.8125,15.5926568 C17.8125,16.0385555 17.7660727,16.2002491 17.6788919,16.363263 C17.5917111,16.5262769 17.4637769,16.6542111 17.300763,16.7413919 C17.1377491,16.8285727 16.9760555,16.875 16.5301568,16.875 L3.34484322,16.875 C2.89894454,16.875 2.73725091,16.8285727 2.57423702,16.7413919 C2.41122313,16.6542111 2.28328887,16.5262769 2.19610809,16.363263 C2.10892731,16.2002491 2.0625,16.0385555 2.0625,15.5926568 L2.0625,3.53234322 C2.0625,3.08644454 2.10892731,2.92475091 2.19610809,2.76173702 C2.28328887,2.59872313 2.41122313,2.47078887 2.57423702,2.38360809 C2.73725091,2.29642731 2.89894454,2.25 3.34484322,2.25 Z" id="path-13"></path>
        <filter x="-6.3%" y="-6.8%" width="112.7%" height="113.7%" filterUnits="objectBoundingBox" id="filter-14">
            <feOffset dx="0" dy="-1" in="SourceAlpha" result="shadowOffsetInner1"></feOffset>
            <feComposite in="shadowOffsetInner1" in2="SourceAlpha" operator="arithmetic" k2="-1" k3="1" result="shadowInnerInner1"></feComposite>
            <feColorMatrix values="0 0 0 0 0   0 0 0 0 0.0510136902   0 0 0 0 0.262143342  0 0 0 0.250573645 0" type="matrix" in="shadowInnerInner1" result="shadowMatrixInner1"></feColorMatrix>
            <feGaussianBlur stdDeviation="0.5" in="SourceAlpha" result="shadowBlurInner2"></feGaussianBlur>
            <feOffset dx="0" dy="1" in="shadowBlurInner2" result="shadowOffsetInner2"></feOffset>
            <feComposite in="shadowOffsetInner2" in2="SourceAlpha" operator="arithmetic" k2="-1" k3="1" result="shadowInnerInner2"></feComposite>
            <feColorMatrix values="0 0 0 0 0.838719512   0 0 0 0 1   0 0 0 0 0.9690462  0 0 0 0.568209135 0" type="matrix" in="shadowInnerInner2" result="shadowMatrixInner2"></feColorMatrix>
            <feMerge>
                <feMergeNode in="shadowMatrixInner1"></feMergeNode>
                <feMergeNode in="shadowMatrixInner2"></feMergeNode>
            </feMerge>
        </filter>
        <linearGradient x1="50%" y1="0.522592905%" x2="50%" y2="100%" id="linearGradient-15">
            <stop stop-color="#000000" stop-opacity="0.8" offset="0%"></stop>
            <stop stop-color="#000000" stop-opacity="0.531304633" offset="99.4721284%"></stop>
        </linearGradient>
    </defs>
    <g id="apps/128/deepin-devicemanager" stroke="none" fill="none" transform="translate(0.75, 0)">
        <g id="" filter="url(#filter-1)" stroke-width="1" fill-rule="evenodd" transform="translate(2.0625, 2.4375)">
            <g id="Rectangle-245">
                <use fill="url(#linearGradient-2)" fill-rule="evenodd" xlink:href="#path-3"></use>
                <use fill="black" fill-opacity="1" filter="url(#filter-4)" xlink:href="#path-3"></use>
            </g>
            <path d="M16.0279704,-1.33226763e-15 C17.3656664,-1.33226763e-15 17.8507473,0.139281929 18.339789,0.400824274 C18.8288306,0.66236662 19.2126334,1.04616938 19.4741757,1.53521105 C19.7357181,2.02425271 19.875,2.50933361 19.875,3.84702962 L19.875,15.2779704 C19.875,16.6156664 19.7357181,17.1007473 19.4741757,17.589789 C19.2126334,18.0788306 18.8288306,18.4626334 18.339789,18.7241757 C17.8507473,18.9857181 17.3656664,19.125 16.0279704,19.125 L3.84702962,19.125 C2.50933361,19.125 2.02425271,18.9857181 1.53521105,18.7241757 C1.04616938,18.4626334 0.66236662,18.0788306 0.400824274,17.589789 C0.139281929,17.1007473 0,16.6156664 0,15.2779704 L0,3.84702962 C0,2.50933361 0.139281929,2.02425271 0.400824274,1.53521105 C0.66236662,1.04616938 1.04616938,0.66236662 1.53521105,0.400824274 C2.02425271,0.139281929 2.50933361,-1.33226763e-15 3.84702962,-1.33226763e-15 L16.0279704,-1.33226763e-15 Z M3.84702962,0.1875 C2.65572956,0.1875 2.14853885,0.285443044 1.62363583,0.566164249 C1.16726951,0.810231632 0.810231632,1.16726951 0.566164249,1.62363583 C0.285443044,2.14853885 0.1875,2.65572956 0.1875,3.84702962 L0.1875,15.2779704 C0.1875,16.4692704 0.285443044,16.9764611 0.566164249,17.5013642 C0.810231632,17.9577305 1.16726951,18.3147684 1.62363583,18.5588358 C2.14853885,18.839557 2.65572956,18.9375 3.84702962,18.9375 L16.0279704,18.9375 C17.2192704,18.9375 17.7264611,18.839557 18.2513642,18.5588358 C18.7077305,18.3147684 19.0647684,17.9577305 19.3088358,17.5013642 C19.589557,16.9764611 19.6875,16.4692704 19.6875,15.2779704 L19.6875,3.84702962 C19.6875,2.65572956 19.589557,2.14853885 19.3088358,1.62363583 C19.0647684,1.16726951 18.7077305,0.810231632 18.2513642,0.566164249 C17.7264611,0.285443044 17.2192704,0.1875 16.0279704,0.1875 L3.84702962,0.1875 Z" id="Rectangle-245" fill="url(#linearGradient-5)" fill-rule="nonzero"></path>
            <g id="">
                <use fill="url(#linearGradient-6)" fill-rule="evenodd" xlink:href="#path-7"></use>
                <use fill="black" fill-opacity="1" filter="url(#filter-8)" xlink:href="#path-7"></use>
            </g>
            <g id="" transform="translate(9.9375, 9.5092) rotate(-90) translate(-9.9375, -9.5092)">
                <use fill="url(#linearGradient-9)" fill-rule="evenodd" xlink:href="#path-10"></use>
                <use fill="black" fill-opacity="1" filter="url(#filter-11)" xlink:href="#path-10"></use>
            </g>
            <g id="">
                <use fill="url(#linearGradient-12)" fill-rule="evenodd" xlink:href="#path-13"></use>
                <use fill="black" fill-opacity="1" filter="url(#filter-14)" xlink:href="#path-13"></use>
            </g>
            <path d="M16.5301568,1.875 C16.9933039,1.875 17.2305989,1.92082378 17.4776126,2.05292814 C17.7059771,2.17505885 17.8874411,2.35652288 18.0095719,2.58488745 C18.1416762,2.83190113 18.1875,3.06919613 18.1875,3.53234322 L18.1875,15.5926568 C18.1875,16.0558039 18.1416762,16.2930989 18.0095719,16.5401126 C17.8874411,16.7684771 17.7059771,16.9499411 17.4776126,17.0720719 C17.2305989,17.2041762 16.9933039,17.25 16.5301568,17.25 L3.34484322,17.25 C2.88169613,17.25 2.64440113,17.2041762 2.39738745,17.0720719 C2.16902288,16.9499411 1.98755885,16.7684771 1.86542814,16.5401126 C1.73332378,16.2930989 1.6875,16.0558039 1.6875,15.5926568 L1.6875,3.53234322 C1.6875,3.06919613 1.73332378,2.83190113 1.86542814,2.58488745 C1.98755885,2.35652288 2.16902288,2.17505885 2.39738745,2.05292814 C2.64440113,1.92082378 2.88169613,1.875 3.34484322,1.875 L16.5301568,1.875 Z M16.5301568,2.25 L3.34484322,2.25 C2.89894454,2.25 2.73725091,2.29642731 2.57423702,2.38360809 C2.41122313,2.47078887 2.28328887,2.59872313 2.19610809,2.76173702 C2.10892731,2.92475091 2.0625,3.08644454 2.0625,3.53234322 L2.0625,15.5926568 C2.0625,16.0385555 2.10892731,16.2002491 2.19610809,16.363263 C2.28328887,16.5262769 2.41122313,16.6542111 2.57423702,16.7413919 C2.73725091,16.8285727 2.89894454,16.875 3.34484322,16.875 L16.5301568,16.875 C16.9760555,16.875 17.1377491,16.8285727 17.300763,16.7413919 C17.4637769,16.6542111 17.5917111,16.5262769 17.6788919,16.363263 C17.7660727,16.2002491 17.8125,16.0385555 17.8125,15.5926568 L17.8125,3.53234322 C17.8125,3.08644454 17.7660727,2.92475091 17.6788919,2.76173702 C17.5917111,2.59872313 17.4637769,2.47078887 17.300763,2.38360809 C17.1377491,2.29642731 16.9760555,2.25 16.5301568,2.25 Z" id="" fill-opacity="0.2" fill="#000000" fill-rule="nonzero"></path>
            <path d="M6.375,5.47495313 L6.375,5.21254688 C6.375,5.12967827 6.30782173,5.0625 6.22495312,5.0625 L5.96254687,5.0625 C5.87967827,5.0625 5.8125,5.12967827 5.8125,5.21254688 L5.8125,5.47495313 C5.8125,5.55782173 5.87967827,5.625 5.96254687,5.625 L6.22495312,5.625 C6.30782173,5.625 6.375,5.55782173 6.375,5.47495313 Z M6.375,8.47495312 L6.375,6.15004687 C6.375,6.06717827 6.30782173,6 6.22495313,6 L5.96254688,6 C5.87967827,6 5.8125,6.06717827 5.8125,6.15004687 L5.8125,8.47495312 C5.8125,8.55782173 5.87967827,8.625 5.96254688,8.625 L6.22495313,8.625 C6.30782173,8.625 6.375,8.55782173 6.375,8.47495312 Z M7.6875,8.47495313 L7.6875,7.46842291 L7.6875,7.46842291 C7.6875,7.18308581 7.7038799,6.98751768 7.7366397,6.88171853 C7.7693995,6.77591938 7.82996704,6.69095945 7.91834231,6.62683876 C8.00671758,6.56271806 8.10652069,6.53065771 8.21775164,6.53065771 C8.3046032,6.53065771 8.37888415,6.55309995 8.44059447,6.59798444 C8.50230479,6.64286893 8.55643298,6.70578736 8.58385979,6.78673975 C8.6112866,6.86769213 8.625,7.04602782 8.625,7.32174682 L8.625,8.47495313 C8.625,8.55782173 8.69217827,8.625 8.77504688,8.625 L9.03745313,8.625 C9.12032173,8.625 9.1875,8.55782173 9.1875,8.47495313 L9.1875,7.03801273 L9.1875,7.03801273 C9.1875,6.84084158 9.17569123,6.68935644 9.1520737,6.58355728 C9.12845617,6.47775813 9.08655411,6.3831801 9.0263675,6.2998232 C8.96618089,6.21646629 8.87742469,6.14793729 8.76009889,6.09423621 C8.6427731,6.04053512 8.54558225,6.01368458 8.40387707,6.01368458 C8.08237391,6.01368458 7.85358457,6.15795615 7.64178865,6.44649929 L7.64178865,6.22144009 C7.64178865,6.13857148 7.57461038,6.07139321 7.49174178,6.07139321 L7.27504688,6.07139321 C7.19217827,6.07139321 7.125,6.13857148 7.125,6.22144009 L7.125,8.47495313 C7.125,8.55782173 7.19217827,8.625 7.27504688,8.625 L7.53745312,8.625 C7.62032173,8.625 7.6875,8.55782173 7.6875,8.47495313 Z M10.6875,8.47495312 L10.6875,6.5625 L10.6875,6.5625 L11.0999531,6.5625 C11.1828217,6.5625 11.25,6.49532173 11.25,6.41245312 L11.25,6.15004687 C11.25,6.06717827 11.1828217,6 11.0999531,6 L10.6875,6 L10.6875,6 L10.6875,5.89105375 C10.6875,5.76120934 10.7076892,5.67344413 10.7480675,5.62775813 C10.7884459,5.58207214 10.8551083,5.55922914 10.9480547,5.55922914 C11.0425248,5.55922914 11.2205487,5.57205328 11.3226373,5.59770156 L11.4094889,5.12641443 C11.2342621,5.0687058 11.0552259,5.03985149 10.8723805,5.03985149 C10.6941063,5.03985149 10.5466872,5.0731141 10.4301233,5.13963932 C10.3135593,5.20616455 10.2335645,5.29232673 10.1901387,5.39812588 C10.1467129,5.50392504 10.125,5.66422678 10.125,5.87903112 L10.125,6 L9.90004687,6 C9.81717827,6 9.75,6.06717827 9.75,6.15004687 L9.75,6.41245312 C9.75,6.49532173 9.81717827,6.5625 9.90004687,6.5625 L10.125,6.5625 L10.125,6.5625 L10.125,8.47495312 C10.125,8.55782173 10.1921783,8.625 10.2750469,8.625 L10.5374531,8.625 C10.6203217,8.625 10.6875,8.55782173 10.6875,8.47495312 Z M12.8485316,8.625 C13.1977047,8.625 13.4873261,8.49796087 13.7173956,8.2438826 C13.9474652,7.98980434 14.0625,7.6696016 14.0625,7.2832744 C14.0625,6.90015323 13.9485749,6.58315653 13.7207246,6.3322843 C13.4928744,6.08141207 13.2006638,5.95597595 12.844093,5.95597595 C12.6132836,5.95597595 12.4042976,6.01128006 12.2171349,6.12188826 C12.0299722,6.23249646 11.8853465,6.39279821 11.7832577,6.60279349 C11.681169,6.81278878 11.6301246,7.02999764 11.6301246,7.25442008 C11.6301246,7.54777228 11.681169,7.79664074 11.7832577,8.00102546 C11.8853465,8.20541018 12.0344108,8.36050212 12.2304508,8.46630127 C12.4264908,8.57210042 12.6325178,8.625 12.8485316,8.625 Z M12.8450145,8.10796308 C12.6595617,8.10796308 12.5036127,8.03775049 12.3771676,7.89732532 C12.2507225,7.75690015 12.1875,7.55462104 12.1875,7.29048798 C12.1875,7.02635492 12.2507225,6.8240758 12.3771676,6.68365063 C12.5036127,6.54322546 12.6595617,6.47301288 12.8450145,6.47301288 C13.0304672,6.47301288 13.1859947,6.54322546 13.3115968,6.68365063 C13.4371989,6.8240758 13.5,7.02468319 13.5,7.28547279 C13.5,7.55294931 13.4371989,7.75690015 13.3115968,7.89732532 C13.1859947,8.03775049 13.0304672,8.10796308 12.8450145,8.10796308 Z" id="info" fill-opacity="0.5" fill="#000000" fill-rule="nonzero"></path>
            <path d="M5.625,9.9375 L7.125,9.9375 C7.22855339,9.9375 7.3125,10.0214466 7.3125,10.125 C7.3125,10.2285534 7.22855339,10.3125 7.125,10.3125 L5.625,10.3125 C5.52144661,10.3125 5.4375,10.2285534 5.4375,10.125 C5.4375,10.0214466 5.52144661,9.9375 5.625,9.9375 Z M8.25,9.9375 L10.6875,9.9375 C10.7910534,9.9375 10.875,10.0214466 10.875,10.125 C10.875,10.2285534 10.7910534,10.3125 10.6875,10.3125 L8.25,10.3125 C8.14644661,10.3125 8.0625,10.2285534 8.0625,10.125 C8.0625,10.0214466 8.14644661,9.9375 8.25,9.9375 Z M11.4375,9.9375 L13.3125,9.9375 C13.4160534,9.9375 13.5,10.0214466 13.5,10.125 C13.5,10.2285534 13.4160534,10.3125 13.3125,10.3125 L11.4375,10.3125 C11.3339466,10.3125 11.25,10.2285534 11.25,10.125 C11.25,10.0214466 11.3339466,9.9375 11.4375,9.9375 Z M5.625,11.8125 L7.125,11.8125 C7.22855339,11.8125 7.3125,11.8964466 7.3125,12 C7.3125,12.1035534 7.22855339,12.1875 7.125,12.1875 L5.625,12.1875 C5.52144661,12.1875 5.4375,12.1035534 5.4375,12 C5.4375,11.8964466 5.52144661,11.8125 5.625,11.8125 Z M8.25,11.8125 L12.75,11.8125 C12.8535534,11.8125 12.9375,11.8964466 12.9375,12 C12.9375,12.1035534 12.8535534,12.1875 12.75,12.1875 L8.25,12.1875 C8.14644661,12.1875 8.0625,12.1035534 8.0625,12 C8.0625,11.8964466 8.14644661,11.8125 8.25,11.8125 Z M5.625,10.875 L6.5625,10.875 C6.66605339,10.875 6.75,10.9589466 6.75,11.0625 C6.75,11.1660534 6.66605339,11.25 6.5625,11.25 L5.625,11.25 C5.52144661,11.25 5.4375,11.1660534 5.4375,11.0625 C5.4375,10.9589466 5.52144661,10.875 5.625,10.875 Z M8.25,10.875 L9.1875,10.875 C9.29105339,10.875 9.375,10.9589466 9.375,11.0625 C9.375,11.1660534 9.29105339,11.25 9.1875,11.25 L8.25,11.25 C8.14644661,11.25 8.0625,11.1660534 8.0625,11.0625 C8.0625,10.9589466 8.14644661,10.875 8.25,10.875 Z M10.125,10.875 L12.9375,10.875 C13.0410534,10.875 13.125,10.9589466 13.125,11.0625 C13.125,11.1660534 13.0410534,11.25 12.9375,11.25 L10.125,11.25 C10.0214466,11.25 9.9375,11.1660534 9.9375,11.0625 C9.9375,10.9589466 10.0214466,10.875 10.125,10.875 Z M13.6875,10.875 L14.625,10.875 C14.7285534,10.875 14.8125,10.9589466 14.8125,11.0625 C14.8125,11.1660534 14.7285534,11.25 14.625,11.25 L13.6875,11.25 C13.5839466,11.25 13.5,11.1660534 13.5,11.0625 C13.5,10.9589466 13.5839466,10.875 13.6875,10.875 Z M5.625,12.75 L7.5,12.75 C7.60355339,12.75 7.6875,12.8339466 7.6875,12.9375 C7.6875,13.0410534 7.60355339,13.125 7.5,13.125 L5.625,13.125 C5.52144661,13.125 5.4375,13.0410534 5.4375,12.9375 C5.4375,12.8339466 5.52144661,12.75 5.625,12.75 Z M8.25,12.75 L10.6875,12.75 C10.7910534,12.75 10.875,12.8339466 10.875,12.9375 C10.875,13.0410534 10.7910534,13.125 10.6875,13.125 L8.25,13.125 C8.14644661,13.125 8.0625,13.0410534 8.0625,12.9375 C8.0625,12.8339466 8.14644661,12.75 8.25,12.75 Z M11.4375,12.75 L13.6875,12.75 C13.7910534,12.75 13.875,12.8339466 13.875,12.9375 C13.875,13.0410534 13.7910534,13.125 13.6875,13.125 L11.4375,13.125 C11.3339466,13.125 11.25,13.0410534 11.25,12.9375 C11.25,12.8339466 11.3339466,12.75 11.4375,12.75 Z M5.625,13.6875 L6.5625,13.6875 C6.66605339,13.6875 6.75,13.7714466 6.75,13.875 C6.75,13.9785534 6.66605339,14.0625 6.5625,14.0625 L5.625,14.0625 C5.52144661,14.0625 5.4375,13.9785534 5.4375,13.875 C5.4375,13.7714466 5.52144661,13.6875 5.625,13.6875 Z M8.25,13.6875 L8.8125,13.6875 C8.91605339,13.6875 9,13.7714466 9,13.875 C9,13.9785534 8.91605339,14.0625 8.8125,14.0625 L8.25,14.0625 C8.14644661,14.0625 8.0625,13.9785534 8.0625,13.875 C8.0625,13.7714466 8.14644661,13.6875 8.25,13.6875 Z M9.75,13.6875 L12.9375,13.6875 C13.0410534,13.6875 13.125,13.7714466 13.125,13.875 C13.125,13.9785534 13.0410534,14.0625 12.9375,14.0625 L9.75,14.0625 C9.64644661,14.0625 9.5625,13.9785534 9.5625,13.875 C9.5625,13.7714466 9.64644661,13.6875 9.75,13.6875 Z" id="" fill="url(#linearGradient-15)" opacity="0.22937593"></path>
        </g>
        <g id="Guide/128"></g>
    </g>
</svg>