<?xml version="1.0" encoding="UTF-8"?>
<svg width="36px" height="36px" viewBox="0 0 36 36" version="1.1" xmlns="http://www.w3.org/2000/svg" xmlns:xlink="http://www.w3.org/1999/xlink">
    <title>retest</title>
    <defs>
        <linearGradient x1="50%" y1="0%" x2="50%" y2="95.6533653%" id="linearGradient-1">
            <stop stop-color="#E6E6E6" offset="0%"></stop>
            <stop stop-color="#E3E3E3" offset="100%"></stop>
        </linearGradient>
        <rect id="path-2" x="0" y="0" width="36" height="36" rx="8"></rect>
    </defs>
    <g id="驱动管理一期1052" stroke="none" stroke-width="1" fill="none" fill-rule="evenodd">
        <g id="2_扫描结束_未选择驱动" transform="translate(-1239.000000, -332.000000)">
            <g id="retest" transform="translate(1239.000000, 332.000000)">
                <g id="矩形" opacity="0">
                    <use fill-opacity="0.08" fill="#000000" xlink:href="#path-2"></use>
                    <rect stroke-opacity="0.03" stroke="#000000" stroke-width="1" stroke-linejoin="square" fill="url(#linearGradient-1)" x="0.5" y="0.5" width="35" height="35" rx="8"></rect>
                </g>
                <g id="编组-48" transform="translate(11.585786, 13.000000)" fill="#536076">
                    <path d="M6.41421356,0 C9.72792206,0 12.4142136,2.6862915 12.4142136,6 C12.4142136,9.3137085 9.72792206,12 6.41421356,12 C3.76985231,12 1.46036733,10.2740229 0.685247725,7.78789742 L0.685247725,7.78789742 L1.63992369,7.49025032 C2.285681,9.56145805 4.21055651,11 6.41421356,11 C9.17563731,11 11.4142136,8.76142375 11.4142136,6 C11.4142136,3.23857625 9.17563731,1 6.41421356,1 C4.6366901,1 3.02152841,1.93472195 2.12344022,3.43142018 L2.176,3.347 L4,5.17157288 L0,5.17157288 L4.4408921e-16,1.17157288 L1.45283539,2.62478492 C2.55843908,1.00112324 4.3999587,0 6.41421356,0 Z" id="形状结合"></path>
                </g>
            </g>
        </g>
    </g>
</svg>