<?xml version="1.0" encoding="UTF-8"?>
<svg width="20px" height="20px" viewBox="0 0 20 20" version="1.1" xmlns="http://www.w3.org/2000/svg" xmlns:xlink="http://www.w3.org/1999/xlink">
    <!-- Generator: Sketch 58 (84663) - https://sketch.com -->
    <title>内存备份</title>
    <desc>Created with Sketch.</desc>
    <defs>
        <path d="" id="path-1"></path>
        <filter x="-200.0%" y="-83.3%" width="400.0%" height="333.3%" filterUnits="objectBoundingBox" id="filter-2">
            <feMorphology radius="0.5" operator="dilate" in="SourceAlpha" result="shadowSpreadOuter1"></feMorphology>
            <feOffset dx="0" dy="1" in="shadowSpreadOuter1" result="shadowOffsetOuter1"></feOffset>
            <feMorphology radius="1" operator="erode" in="SourceAlpha" result="shadowInner"></feMorphology>
            <feOffset dx="0" dy="1" in="shadowInner" result="shadowInner"></feOffset>
            <feComposite in="shadowOffsetOuter1" in2="shadowInner" operator="out" result="shadowOffsetOuter1"></feComposite>
            <feGaussianBlur stdDeviation="0.5" in="shadowOffsetOuter1" result="shadowBlurOuter1"></feGaussianBlur>
            <feColorMatrix values="0 0 0 0 0.241013895   0 0 0 0 0   0 0 0 0 0.621603261  0 0 0 0.5 0" type="matrix" in="shadowBlurOuter1"></feColorMatrix>
        </filter>
    </defs>
    <g id="内存备份" stroke="none" stroke-width="1" fill="none" fill-rule="evenodd">
        <g id="编组" transform="translate(3.000000, 4.000000)">
            <path d="M2.5,11.3 L1.5,11.3 C0.94771525,11.3 0.5,10.7627417 0.5,10.1 L0.5,1.7 C0.5,1.0372583 0.94771525,0.5 1.5,0.5 L13.5,0.5 C14.0522847,0.5 14.5,1.0372583 14.5,1.7 L14.5,10.1 C14.5,10.7627417 14.0522847,11.3 13.5,11.3 L12.5,11.3" id="路径" stroke="#FFFFFF" stroke-linecap="round" stroke-linejoin="round"></path>
            <path d="M4.5,0.5 L4.5,2.5" id="路径-24" stroke="#FFFFFF" stroke-linecap="round" stroke-linejoin="round"></path>
            <path d="M6.5,0.5 L6.5,2.5" id="路径-24" stroke="#FFFFFF" stroke-linecap="round" stroke-linejoin="round"></path>
            <path d="M8.5,0.5 L8.5,2.5" id="路径-24" stroke="#FFFFFF" stroke-linecap="round" stroke-linejoin="round"></path>
            <path d="M10.5,0.5 L10.5,2.5" id="路径-24" stroke="#FFFFFF" stroke-linecap="round" stroke-linejoin="round"></path>
            <polyline id="路径" stroke="#FFFFFF" stroke-linecap="round" stroke-linejoin="round" points="2.5 10.9 2.5 8.5 12.5 8.5 12.5 10.9"></polyline>
            <rect id="矩形" fill="#FFFFFF" x="4" y="8" width="1" height="4" rx="0.5"></rect>
            <rect id="矩形备份" fill="#FFFFFF" x="6" y="8" width="1" height="4" rx="0.5"></rect>
            <rect id="矩形备份-2" fill="#FFFFFF" x="8" y="8" width="1" height="4" rx="0.5"></rect>
            <rect id="矩形备份-3" fill="#FFFFFF" x="10" y="8" width="1" height="4" rx="0.5"></rect>
            <g id="路径-25">
                <use fill="black" fill-opacity="1" filter="url(#filter-2)" xlink:href="#path-1"></use>
                <use stroke="#FFFFFF" stroke-width="1" xlink:href="#path-1"></use>
            </g>
            <path d="M0,4.8 L3.5,4.5" id="路径-27" stroke="#FFFFFF" stroke-linecap="round" stroke-linejoin="round"></path>
            <path d="M11.5,4.5 L14,4.8" id="路径-27" stroke="#FFFFFF" stroke-linecap="round" stroke-linejoin="round"></path>
        </g>
    </g>
</svg>