<?xml version="1.0" encoding="UTF-8"?>
<svg width="20px" height="20px" viewBox="0 0 20 20" version="1.1" xmlns="http://www.w3.org/2000/svg" xmlns:xlink="http://www.w3.org/1999/xlink">
    <!-- Generator: Sketch 58 (84663) - https://sketch.com -->
    <title>其他PCI设备</title>
    <desc>Created with Sketch.</desc>
    <g id="其他PCI设备" stroke="none" stroke-width="1" fill="none" fill-rule="evenodd">
        <path d="M10,7.5 C9.72385763,7.5 9.5,7.72385763 9.5,8 L9.5,13 C9.5,13.2761424 9.72385763,13.5 10,13.5 L15,13.5 C15.2761424,13.5 15.5,13.2761424 15.5,13 L15.5,8 C15.5,7.72385763 15.2761424,7.5 15,7.5 L10,7.5 Z" id="形状结合" stroke="#FFFFFF"></path>
        <path d="M7,7 C7.55228475,7 8,7.44771525 8,8 L8,9 L8,9 L6,9 L6,8 C6,7.44771525 6.44771525,7 7,7 Z" id="形状结合备份" fill="#FFFFFF"></path>
        <rect id="矩形" fill="#FFFFFF" x="4" y="4" width="1" height="13" rx="0.5"></rect>
        <rect id="矩形备份" fill="#FFFFFF" x="17" y="7" width="1" height="8" rx="0.5"></rect>
        <rect id="矩形备份-2" fill="#FFFFFF" transform="translate(6.049312, 13.555587) rotate(-90.000000) translate(-6.049312, -13.555587) " x="5.5493124" y="11.5555867" width="1" height="4" rx="0.5"></rect>
        <rect id="矩形备份-3" fill="#FFFFFF" transform="translate(6.049312, 10.472451) rotate(-90.000000) translate(-6.049312, -10.472451) " x="5.5493124" y="8.47245146" width="1" height="4" rx="0.5"></rect>
    </g>
</svg>