<?xml version="1.0" encoding="UTF-8"?>
<svg width="20px" height="20px" viewBox="0 0 20 20" version="1.1" xmlns="http://www.w3.org/2000/svg" xmlns:xlink="http://www.w3.org/1999/xlink">
    <!-- Generator: Sketch 58 (84663) - https://sketch.com -->
    <title>概况</title>
    <desc>Created with Sketch.</desc>
    <defs>
        <path d="M12.4920741,-1.77635684e-15 C12.772159,-1.77635684e-15 13,0.227358806 13,0.506850841 L13,0.506850841 L13,2 L11.984,2 L11.9841482,1.01370168 L1.01585175,1.01370168 L1.015,6.999 L1,7 L1,9 L10,8.999 L10,9.979 L7.00792588,9.97937339 L7.00792588,11.9862983 L9.55393122,12 C9.83401607,12 10.0618571,12.2273588 10.0618571,12.5068508 C10.0618571,12.7863429 9.83401607,13.0137017 9.55393122,13.0137017 L9.55393122,13.0137017 L3.55290116,13.0137017 C3.27281632,13.0137017 3.04497528,12.7863429 3.04497528,12.5068508 C3.04497528,12.2273588 3.27281632,12 3.55290116,12 L3.55290116,12 L5.99207412,11.9862983 L5.99207412,9.97937339 L0.507925876,9.97937339 C0.227841036,9.97937339 0,9.75201459 0,9.47252255 L0,9.47252255 L0,0.506850841 C0,0.227358806 0.227841036,-1.77635684e-15 0.507925876,-1.77635684e-15 L0.507925876,-1.77635684e-15 Z M10,6.999 L10,7.013 L1.01585175,7.01370168 L1.015,6.999 L10,6.999 Z" id="path-1"></path>
    </defs>
    <g id="概况" stroke="none" stroke-width="1" fill="none" fill-rule="evenodd">
        <g id="电脑" transform="translate(3.000000, 2.000000)">
            <rect id="矩形" fill="#000000" fill-rule="nonzero" opacity="0" x="0" y="0" width="15" height="15"></rect>
            <g id="编组" transform="translate(0.000000, 1.000000)">
                <mask id="mask-2" fill="white">
                    <use xlink:href="#path-1"></use>
                </mask>
                <use id="形状结合" fill="#FFFFFF" fill-rule="nonzero" xlink:href="#path-1"></use>
            </g>
            <rect id="矩形" stroke="#FFFFFF" x="10.5" y="3.5" width="5" height="10" rx="0.25"></rect>
            <rect id="矩形" fill="#FFFFFF" x="12" y="5" width="2" height="1"></rect>
            <rect id="矩形备份" fill="#FFFFFF" x="12" y="7" width="2" height="1"></rect>
            <rect id="矩形备份-2" fill="#FFFFFF" x="13" y="9" width="1" height="1"></rect>
        </g>
    </g>
</svg>