<?xml version="1.0" encoding="UTF-8"?>
<svg width="20px" height="20px" viewBox="0 0 20 20" version="1.1" xmlns="http://www.w3.org/2000/svg" xmlns:xlink="http://www.w3.org/1999/xlink">
    <!-- Generator: Sketch 58 (84663) - https://sketch.com -->
    <title>概况备份</title>
    <desc>Created with Sketch.</desc>
    <g id="概况备份" stroke="none" stroke-width="1" fill="none" fill-rule="evenodd">
        <g id="电脑" fill-rule="nonzero">
            <rect id="矩形" fill="#000000" opacity="0" x="3" y="2" width="15" height="15"></rect>
            <path d="M15.4920741,3 L3.50792588,3 C3.22784104,3 3,3.22735881 3,3.50685084 L3,12.4725226 C3,12.7520146 3.22784104,12.9793734 3.50792588,12.9793734 L8.99207412,12.9793734 L8.99207412,14.9862983 L6.29716455,14.9862983 C6.01707971,14.9862983 5.78923867,15.2136571 5.78923867,15.4931492 C5.78923867,15.7726412 6.01707971,16 6.29716455,16 L12.7042867,16 C12.9843715,16 13.2122125,15.7726412 13.2122125,15.4931492 C13.2122125,15.2136571 12.9843715,14.9862983 12.7042867,14.9862983 L10.0079259,14.9862983 L10.0079259,12.9793734 L15.4920741,12.9793734 C15.772159,12.9793734 16,12.7520146 16,12.4725226 L16,3.50685084 C16,3.22735881 15.772159,3 15.4920741,3 Z M14.9841482,4.01370168 L14.9841482,10.0137017 L4.01585175,10.0137017 L4.01585175,4.01370168 L14.9841482,4.01370168 Z M4,12 L4,11 L14.9682965,11 L14.9682965,12 L4,12 Z" id="形状" fill="#FFFFFF"></path>
        </g>
    </g>
</svg>