<?xml version="1.0" encoding="UTF-8"?>
<svg width="20px" height="20px" viewBox="0 0 20 20" version="1.1" xmlns="http://www.w3.org/2000/svg" xmlns:xlink="http://www.w3.org/1999/xlink">
    <!-- Generator: Sketch 58 (84663) - https://sketch.com -->
    <title>存储设备</title>
    <desc>Created with Sketch.</desc>
    <g id="存储设备" stroke="none" stroke-width="1" fill="none" fill-rule="evenodd">
        <g id="编组" transform="translate(3.000000, 2.000000)" fill="#536076">
            <path d="M12.5,16 L1.5,16 C0.671572875,16 0,15.3284271 0,14.5 L0,1.5 C0,0.671572875 0.671572875,0 1.5,0 L12.5,0 C13.3284271,0 14,0.671572875 14,1.5 L14,14.5 C14,15.3284271 13.3284271,16 12.5,16 Z M1.5,1 C1.22385763,1 1,1.22385763 1,1.5 L1,14.5 C1,14.7761424 1.22385763,15 1.5,15 L12.5,15 C12.7761424,15 13,14.7761424 13,14.5 L13,1.5 C13,1.22385763 12.7761424,1 12.5,1 L1.5,1 Z" id="形状" fill-rule="nonzero"></path>
            <path d="M9,2.60053102 L12,2.60053102 L12,3.63756805 L9,3.63756805 L9,2.60053102 Z M2.72406174,2.2421733 L4.52950681,4.63807983 L3.33155354,5.54080236 L1.52610847,3.14489583 L2.72406174,2.2421733 Z M2,13.600531 L3,13.600531 L3,14.6375681 L2,14.6375681 L2,13.600531 Z M11,13.600531 L12,13.600531 L12,14.6375681 L11,14.6375681 L11,13.600531 Z M7,13.7857162 C4.23857625,13.7857162 2,11.5471399 2,8.7857162 C2,6.02429245 4.23857625,3.7857162 7,3.7857162 C9.76142375,3.7857162 12,6.02429245 12,8.7857162 C12,10.1117986 11.4732158,11.3835682 10.5355339,12.3212501 C9.59785201,13.258932 8.32608245,13.7857162 7,13.7857162 Z M7,4.7857162 C4.790861,4.7857162 3,6.5765772 3,8.7857162 C3,10.9948552 4.790861,12.7857162 7,12.7857162 C9.209139,12.7857162 11,10.9948552 11,8.7857162 C11,6.5765772 9.209139,4.7857162 7,4.7857162 Z" id="形状" fill-rule="nonzero" transform="translate(7.000000, 8.300266) scale(1, -1) translate(-7.000000, -8.300266) "></path>
            <circle id="椭圆形" cx="7" cy="8" r="2"></circle>
        </g>
    </g>
</svg>