<?xml version="1.0" encoding="UTF-8"?>
<svg width="20px" height="20px" viewBox="0 0 20 20" version="1.1" xmlns="http://www.w3.org/2000/svg" xmlns:xlink="http://www.w3.org/1999/xlink">
    <!-- Generator: Sketch 58 (84663) - https://sketch.com -->
    <title>存储设备</title>
    <desc>Created with Sketch.</desc>
    <g id="存储设备" stroke="none" stroke-width="1" fill="none" fill-rule="evenodd" stroke-linecap="round" stroke-linejoin="round">
        <g id="编组" transform="translate(3.000000, 3.000000)" stroke="#536076">
            <rect id="矩形" x="0.5" y="0.5" width="14" height="13" rx="1"></rect>
            <path d="M10.5,1 L10.5,3.5 C10.5,4.05228475 10.0522847,4.5 9.5,4.5 L5.5,4.5 C4.94771525,4.5 4.5,4.05228475 4.5,3.5 L4.5,1 L4.5,1" id="路径"></path>
            <path d="M10.5,8.5 L10.5,11.8636364 C10.5,12.4159211 10.0522847,12.8636364 9.5,12.8636364 L5.5,12.8636364 C4.94771525,12.8636364 4.5,12.4159211 4.5,11.8636364 L4.5,8.5 L4.5,8.5" id="路径" transform="translate(7.500000, 10.681818) rotate(-180.000000) translate(-7.500000, -10.681818) "></path>
            <path d="M7.5,1.5 L7.5,2.5" id="路径-23"></path>
        </g>
    </g>
</svg>