<?xml version="1.0" encoding="iso-8859-1"?>
<!-- Generator: Adobe Illustrator 19.0.0, SVG Export Plug-In . SVG Version: 6.00 Build 0)  -->
<svg version="1.1" id="Layer_1" xmlns="http://www.w3.org/2000/svg" xmlns:xlink="http://www.w3.org/1999/xlink" x="0px" y="0px"
	 viewBox="0 0 488.6 488.6" style="enable-background:new 0 0 488.6 488.6;" xml:space="preserve">
<g>
	<g>
		<path d="M427.2,107.85h-86.9c-9.9,0-18,8.1-18,18s8.1,18,18,18h86.9c14,0,25.4,11.4,25.4,25.4v210.3c0,15.6-12.7,28.2-28.2,28.2
			H64.2c-15.6,0-28.2-12.7-28.2-28.2v-210.3c0-14,11.4-25.4,25.4-25.4h86.9c8.4,0,15.6-5.8,17.5-13.9l4-17.3
			c4.4-18.7,20.8-31.8,40.1-31.8h68.9c9.9,0,18-8.1,18-18s-8.1-18-18-18h-68.9c-36.1,0-66.9,24.5-75.1,59.6l-0.8,3.4H61.4
			c-33.9,0-61.4,27.5-61.4,61.4v210.3c0,35.4,28.8,64.2,64.2,64.2h360.2c35.4,0,64.2-28.8,64.2-64.2v-210.3
			C488.6,135.35,461.1,107.85,427.2,107.85z"/>
	</g>
</g>
<g>
	<g>
		<path d="M332.5,247.55c-9.9,0-18,8.1-18,18c0,38.7-31.5,70.2-70.2,70.2s-70.2-31.5-70.2-70.2s31.5-70.1,70.2-70.1
			c9.9,0,18-8.1,18-18c0-9.9-8.1-18-18-18c-58.5,0-106.2,47.6-106.2,106.2s47.7,106.1,106.2,106.1s106.2-47.6,106.2-106.2
			C350.5,255.65,342.4,247.55,332.5,247.55z"/>
	</g>
</g>
<g>
</g>
<g>
</g>
<g>
</g>
<g>
</g>
<g>
</g>
<g>
</g>
<g>
</g>
<g>
</g>
<g>
</g>
<g>
</g>
<g>
</g>
<g>
</g>
<g>
</g>
<g>
</g>
<g>
</g>
</svg>
