<?xml version="1.0" encoding="iso-8859-1"?>
<!-- Generator: Adobe Illustrator 19.0.0, SVG Export Plug-In . SVG Version: 6.00 Build 0)  -->
<svg version="1.1" id="Capa_1" xmlns="http://www.w3.org/2000/svg" xmlns:xlink="http://www.w3.org/1999/xlink" x="0px" y="0px"
	 viewBox="0 0 512 512" style="enable-background:new 0 0 512 512;" xml:space="preserve">
<g>
	<g>
		<path d="M484.685,330.71c4.143,0,7.5-3.357,7.5-7.5c0-31.309,0-117.364,0-150.138c0-4.142-3.357-7.5-7.5-7.5
			c-48.158,0-398.794,0-457.372,0c-4.143,0-7.5,3.358-7.5,7.5c0,55.583,0,130.07,0,196.065c0,4.143,3.357,7.5,7.5,7.5
			c28.601,0,241.515,0,273.554,0c4.143,0,7.5-3.357,7.5-7.5s-3.357-7.5-7.5-7.5H159.552V330.71c19.487,0,171.268,0,192.896,0v30.926
			H335.87c-4.143,0-7.5,3.357-7.5,7.5s3.357,7.5,7.5,7.5h24.077c4.143,0,7.5-3.357,7.5-7.5V330.71c15.233,0,25.983,0,40.438,0v7.963
			h-27.149c-4.143,0-7.5,3.357-7.5,7.5v22.963c0,4.143,3.357,7.5,7.5,7.5c20.671,0,83.144,0,103.947,0c4.143,0,7.5-3.357,7.5-7.5
			v-22.963c0-4.143-3.357-7.5-7.5-7.5h-27.15v-7.963H484.685z M407.887,361.636h-19.648v-7.963h19.648V361.636z M477.185,273.784
			h-47.368v-26.925c12.221,0,36.329,0,47.368,0V273.784z M450.607,180.572h26.578v9.359h-26.578V180.572z M450.607,204.932h26.578
			v26.926h-26.578V204.932z M409.028,180.572h26.579v9.359h-26.579V180.572z M409.028,204.932h26.579v26.926
			c-9.296,0-17.283,0-26.579,0V204.932z M367.448,180.572h26.579v9.359h-26.579V180.572z M367.448,204.932h26.579v26.926
			c-9.296,0-17.283,0-26.579,0V204.932z M325.87,180.572h26.578v9.359H325.87V180.572z M325.87,204.932h26.578v26.926
			c-9.296,0-17.282,0-26.578,0V204.932z M284.289,180.572h26.579v9.359h-26.579V180.572z M284.289,204.932h26.579v26.926
			c-9.296,0-17.283,0-26.579,0V204.932z M242.711,180.572h26.578v9.359h-26.578V180.572z M242.711,204.932h26.578v26.926
			c-9.296,0-17.282,0-26.578,0V204.932z M248.499,246.859v26.925c-9.296,0-17.283,0-26.579,0v-26.925
			C231.216,246.859,239.203,246.859,248.499,246.859z M201.131,180.572h26.579v9.359h-26.579V180.572z M201.131,204.932h26.579
			v26.926c-9.296,0-17.283,0-26.579,0V204.932z M206.92,246.859v26.925c-9.295,0-17.282,0-26.578,0v-26.925
			C189.637,246.859,197.624,246.859,206.92,246.859z M159.552,180.572h26.579v9.359h-26.579V180.572z M159.552,204.932h26.579
			v26.926c-9.296,0-17.283,0-26.579,0V204.932z M117.973,180.572h26.578v9.359h-26.578V180.572z M117.973,204.932h26.578v26.926
			c-9.296,0-17.282,0-26.578,0V204.932z M123.761,246.859v26.925c-9.296,0-17.282,0-26.578,0v-26.925
			C106.479,246.859,114.466,246.859,123.761,246.859z M76.394,180.572h26.579v9.359H76.394V180.572z M76.394,204.932h26.579v26.926
			c-9.296,0-17.283,0-26.579,0V204.932z M34.815,180.572h26.578v9.359H34.815V180.572z M34.815,204.932h26.578v26.926H34.815
			V204.932z M34.815,246.859c11.307,0,35.269,0,47.368,0v26.925H34.815V246.859z M61.393,361.636H34.815V330.71h26.578V361.636z
			 M102.972,361.636H76.394V330.71h26.579V361.636z M102.972,315.709c-18.639,0-57.466,0-68.157,0v-26.926h54.868h13.289V315.709z
			 M144.551,361.636h-26.578V330.71h26.578V361.636z M144.551,315.709h-26.578v-26.926c9.296,0,17.282,0,26.578,0V315.709z
			 M138.762,273.784v-26.925c9.296,0,17.283,0,26.579,0v26.925C156.045,273.784,148.058,273.784,138.762,273.784z M186.13,315.709
			h-26.579v-26.926c9.296,0,17.283,0,26.579,0V315.709z M227.71,315.709h-26.579v-26.926c9.296,0,17.283,0,26.579,0V315.709z
			 M269.288,315.709h-26.578v-26.926H256h13.289V315.709z M263.5,273.784v-26.925c9.296,0,17.283,0,26.579,0v26.925h-13.29H263.5z
			 M310.869,315.709H284.29v-26.926h13.29h13.289V315.709z M305.079,273.784v-26.925c9.296,0,17.282,0,26.578,0v26.925h-13.288
			H305.079z M352.447,315.709H325.87v-26.926h13.289h13.289V315.709z M359.948,273.784h-13.289v-26.925c9.296,0,17.283,0,26.579,0
			v26.925H359.948z M394.027,315.709h-26.579v-26.926c9.296,0,17.283,0,26.579,0V315.709z M388.239,273.784v-26.925
			c9.296,0,17.282,0,26.578,0v26.925C405.521,273.784,397.534,273.784,388.239,273.784z M442.536,361.636h-19.647v-7.963h19.647
			V361.636z M442.536,338.673h-19.647v-7.963h19.647V338.673z M477.185,353.673v7.963h-19.649v-7.963H477.185z M409.028,315.709
			v-26.926c24.811,0,26.565,0,68.157,0v26.926C470.409,315.709,415.811,315.709,409.028,315.709z"/>
	</g>
</g>
<g>
	<g>
		<path d="M491.663,115.126H86.394c-4.143,0-7.5,3.357-7.5,7.5s3.357,7.5,7.5,7.5h405.269c2.942,0,5.336,2.393,5.336,5.336v44.468
			c0,4.143,3.357,7.5,7.5,7.5c4.143,0,7.5-3.357,7.5-7.5v-44.468C512,124.25,502.876,115.126,491.663,115.126z"/>
	</g>
</g>
<g>
	<g>
		<path d="M504.5,207.433c-4.143,0-7.5,3.357-7.5,7.5v155.474c0,6.321-5.144,11.466-11.466,11.466H26.831
			c-6.522,0-11.83-5.307-11.83-11.831V135.52c0-2.974,2.419-5.393,5.393-5.393h30.998c4.143,0,7.5-3.357,7.5-7.5s-3.357-7.5-7.5-7.5
			H20.394C9.15,115.126,0,124.276,0,135.564v234.478c0,14.795,12.036,26.832,26.831,26.832h458.703
			c14.594,0,26.467-11.873,26.467-26.467V214.933C512,210.79,508.642,207.433,504.5,207.433z"/>
	</g>
</g>
<g>
</g>
<g>
</g>
<g>
</g>
<g>
</g>
<g>
</g>
<g>
</g>
<g>
</g>
<g>
</g>
<g>
</g>
<g>
</g>
<g>
</g>
<g>
</g>
<g>
</g>
<g>
</g>
<g>
</g>
</svg>
