<?xml version="1.0" encoding="iso-8859-1"?>
<!-- Generator: Adobe Illustrator 19.0.0, SVG Export Plug-In . SVG Version: 6.00 Build 0)  -->
<svg xmlns="http://www.w3.org/2000/svg" xmlns:xlink="http://www.w3.org/1999/xlink" version="1.1" id="Layer_1" x="0px" y="0px" viewBox="0 0 511.999 511.999" style="enable-background:new 0 0 511.999 511.999;" xml:space="preserve">
<g>
	<g>
		<path d="M386.455,198.212l-53.811-53.811c-3.253-3.254-8.528-3.255-11.784,0c-3.254,3.253-3.254,8.529,0,11.783l47.92,47.92    l-47.92,47.919c-3.254,3.253-3.254,8.529,0,11.783c1.628,1.628,3.76,2.441,5.892,2.441c2.132,0,4.265-0.814,5.891-2.44    l53.811-53.811C389.709,206.742,389.709,201.466,386.455,198.212z"/>
	</g>
</g>
<g>
	<g>
		<path d="M143.223,204.102l47.919-47.92c3.254-3.253,3.254-8.529,0-11.783c-3.253-3.254-8.529-3.254-11.783,0l-53.811,53.811    c-3.254,3.253-3.254,8.529,0,11.783l53.811,53.811c1.626,1.628,3.759,2.441,5.891,2.441s4.265-0.814,5.891-2.442    c3.254-3.253,3.254-8.529,0-11.783L143.223,204.102z"/>
	</g>
</g>
<g>
	<g>
		<path d="M283.22,118.176c-4.386-1.39-9.07,1.041-10.458,5.427L223.356,279.57c-1.39,4.387,1.04,9.07,5.427,10.46    c0.838,0.266,1.685,0.391,2.519,0.391c3.535,0,6.816-2.269,7.941-5.818l49.404-155.967    C290.037,124.248,287.607,119.565,283.22,118.176z"/>
	</g>
</g>
<g>
	<g>
		<path d="M471.246,24.766H40.754C18.283,24.766,0,43.049,0,65.52v59.227c0,4.602,3.731,8.332,8.332,8.332    c4.601,0,8.332-3.731,8.332-8.332V65.52c0-13.284,10.807-24.09,24.09-24.09h430.492c13.284,0,24.09,10.807,24.09,24.09v284.411    h-52.21c-4.602,0-8.332,3.731-8.332,8.332s3.731,8.332,8.332,8.332h52.21v15.273c0,13.284-10.807,24.09-24.09,24.09h-155.41    H196.164H40.754c-13.284,0-24.09-10.807-24.09-24.09v-15.273h398.688c4.602,0,8.332-3.731,8.332-8.332s-3.731-8.332-8.332-8.332    H16.664V152.522c0-4.602-3.731-8.332-8.332-8.332c-4.601,0-8.332,3.73-8.332,8.332V381.87c0,22.472,18.283,40.754,40.754,40.754    H183.54l-20.494,47.945h-40.034c-4.602,0-8.332,3.731-8.332,8.332s3.731,8.332,8.332,8.332h265.975    c4.602,0,8.332-3.731,8.332-8.332s-3.731-8.332-8.332-8.332h-40.034l-20.494-47.945h142.786c22.472,0,40.754-18.282,40.754-40.754    V65.52C512,43.049,493.717,24.766,471.246,24.766z M330.83,470.568H181.17l14.238-33.31h121.185L330.83,470.568z"/>
	</g>
</g>
<g>
	<g>
		<path d="M262.924,379.679c-1.914-2.906-5.583-4.299-8.952-3.457c-3.517,0.879-6.116,4.048-6.291,7.67    c-0.364,7.534,9.106,11.629,14.33,6.172C264.674,387.282,265.089,382.887,262.924,379.679z"/>
	</g>
</g>
<g>
</g>
<g>
</g>
<g>
</g>
<g>
</g>
<g>
</g>
<g>
</g>
<g>
</g>
<g>
</g>
<g>
</g>
<g>
</g>
<g>
</g>
<g>
</g>
<g>
</g>
<g>
</g>
<g>
</g>
</svg>
