<?xml version="1.0" encoding="iso-8859-1"?>
<!-- Generator: Adobe Illustrator 21.0.0, SVG Export Plug-In . SVG Version: 6.00 Build 0)  -->
<svg xmlns="http://www.w3.org/2000/svg" xmlns:xlink="http://www.w3.org/1999/xlink" version="1.1" id="Capa_1" x="0px" y="0px" viewBox="0 0 508.4 508.4" style="enable-background:new 0 0 508.4 508.4;" xml:space="preserve" width="512" height="512">
<g>
	<path d="M489.618,257.134c-7.872-34.484-27.421-65.621-55.044-87.675c-27.636-22.064-62.327-34.215-97.686-34.215   c-4.143,0-7.5,3.358-7.5,7.5s3.357,7.5,7.5,7.5c31.971,0,63.339,10.987,88.327,30.938c24.98,19.944,42.659,48.104,49.779,79.292   C503.97,387.4,498.741,462.94,460.27,473.176c-12.782,3.396-35.28-2.021-69.931-47.156c-2.522-3.285-7.232-3.905-10.517-1.382   c-3.285,2.522-3.904,7.231-1.382,10.517c27.499,35.818,52.736,53.882,75.203,53.882c3.564,0,7.061-0.455,10.483-1.366   c28.454-7.571,43.335-37.524,44.228-89.027C508.993,361.997,502.688,314.386,489.618,257.134z"/>
	<path d="M345.421,353.704c-1.263-2.563-3.872-4.186-6.728-4.186h-169.01c-2.856,0-5.466,1.624-6.728,4.186   c-0.169,0.341-17.075,34.471-40.38,66.264c-37.021,50.506-60.931,56.813-74.47,53.208c-34.996-9.312-36.033-70.842-30.742-120.821   c0.437-4.119-2.549-7.812-6.668-8.248c-4.13-0.434-7.814,2.55-8.248,6.669c-8.595,81.17,5.47,127.228,41.801,136.895   c3.431,0.913,6.933,1.369,10.503,1.369c23.794,0,50.656-20.239,80.031-60.353c19.441-26.549,34.189-53.899,39.503-64.169h159.806   c4.062,7.842,13.652,25.692,26.684,45.614c2.268,3.466,6.915,4.439,10.382,2.171c3.467-2.267,4.438-6.915,2.171-10.382   C356.705,376.507,345.532,353.929,345.421,353.704z"/>
	<path d="M12.67,329.251c4.039,0.628,7.934-2.223,8.562-6.26c2.993-19.278,7.081-40.313,12.149-62.518   c7.12-31.188,24.799-59.347,49.779-79.292c24.988-19.95,56.356-30.938,88.327-30.938h137.033c4.143,0,7.5-3.358,7.5-7.5   s-3.357-7.5-7.5-7.5h-46.833V26.859c0-4.142-3.357-7.5-7.5-7.5c-4.143,0-7.5,3.358-7.5,7.5v108.385h-75.2   c-35.358,0-70.05,12.151-97.686,34.215c-27.623,22.054-47.172,53.191-55.044,87.675c-5.147,22.547-9.302,43.93-12.349,63.555   C5.774,324.782,8.577,328.616,12.67,329.251z"/>
	<path d="M153.244,325.711c14.896,0,27.016-12.119,27.016-27.016V283.68h15.015c14.896,0,27.016-12.119,27.016-27.016   c0-14.897-12.119-27.016-27.016-27.016h-15.015v-15.014c0-14.896-12.119-27.016-27.016-27.016   c-14.897,0-27.017,12.12-27.017,27.016v15.014h-15.014c-14.897,0-27.017,12.119-27.017,27.016   c0,14.897,12.119,27.016,27.017,27.016h15.014v15.015C126.227,313.591,138.346,325.711,153.244,325.711z M111.213,268.68   c-6.626,0-12.017-5.391-12.017-12.016c0-6.625,5.391-12.016,12.017-12.016h22.514c4.142,0,7.5-3.358,7.5-7.5v-22.514   c0-6.626,5.391-12.016,12.017-12.016c6.625,0,12.016,5.391,12.016,12.016v22.514c0,4.142,3.357,7.5,7.5,7.5h22.515   c6.625,0,12.016,5.391,12.016,12.016c0,6.626-5.391,12.016-12.016,12.016h-22.515c-4.143,0-7.5,3.358-7.5,7.5v22.515   c0,6.625-5.391,12.016-12.016,12.016c-6.626,0-12.017-5.39-12.017-12.016V276.18c0-4.142-3.358-7.5-7.5-7.5H111.213z"/>
	<path d="M401.48,271.572c8.614,0,15.623-7.009,15.623-15.624c0-8.615-7.009-15.624-15.623-15.624   c-8.614,0-15.623,7.009-15.623,15.624C385.857,264.563,392.866,271.572,401.48,271.572z"/>
	<path d="M307.897,255.948c0,8.615,7.009,15.624,15.624,15.624c8.614,0,15.623-7.009,15.623-15.624   c0-8.615-7.009-15.624-15.623-15.624C314.906,240.325,307.897,247.334,307.897,255.948z"/>
	<path d="M362.5,310.551c8.614,0,15.623-7.009,15.623-15.624c0-8.615-7.009-15.624-15.623-15.624   c-8.615,0-15.624,7.009-15.624,15.624C346.876,303.543,353.885,310.551,362.5,310.551z"/>
	<path d="M362.5,232.592c8.614,0,15.623-7.009,15.623-15.623s-7.009-15.624-15.623-15.624c-8.615,0-15.624,7.009-15.624,15.624   S353.885,232.592,362.5,232.592z"/>
</g>















</svg>
