<?xml version="1.0" encoding="utf-8"?>
<!-- Generator: Adobe Illustrator 16.0.0, SVG Export Plug-In . SVG Version: 6.00 Build 0)  -->
<!DOCTYPE svg PUBLIC "-//W3C//DTD SVG 1.1//EN" "http://www.w3.org/Graphics/SVG/1.1/DTD/svg11.dtd">
<svg version="1.1" id="Layer_1" xmlns="http://www.w3.org/2000/svg" xmlns:xlink="http://www.w3.org/1999/xlink" x="0px" y="0px"
	 width="512px" height="512px" viewBox="0 0 512 512" enable-background="new 0 0 512 512" xml:space="preserve">
<path fill-rule="evenodd" clip-rule="evenodd" fill="#010101" d="M387.188,486.406C394.25,491.688,392.813,496,384,496H192
	c-8.813,0-10.25-4.313-3.188-9.594l38.375-28.813C234.25,452.313,240,440.813,240,432v-16c0-8.813,7.188-16,16-16h64
	c8.813,0,16,7.188,16,16v16c0,8.813,5.75,20.313,12.813,25.594L387.188,486.406z M512,48v304c0,17.688-14.313,32-32,32H160v80
	c0,17.688-14.328,32-32,32H32c-17.672,0-32-14.313-32-32V112c0-17.672,14.328-32,32-32h32V48c0-17.672,14.313-32,32-32h384
	C497.688,16,512,30.328,512,48z M32,144h96v-32H32V144z M32,208h96v-32H32V208z M64,384c0-8.844-7.156-16-16-16s-16,7.156-16,16
	s7.156,16,16,16S64,392.844,64,384z M480,80c0-17.688-14.313-32-32-32H128c-17.688,0-32,14.313-32,32h32c17.672,0,32,14.328,32,32
	v224h288c17.688,0,32-14.313,32-32V80z"/>
</svg>
