<?xml version="1.0" encoding="utf-8"?>
<!-- Generated by IcoMoon.io -->
<!DOCTYPE svg PUBLIC "-//W3C//DTD SVG 1.1//EN" "http://www.w3.org/Graphics/SVG/1.1/DTD/svg11.dtd">
<svg version="1.1" xmlns="http://www.w3.org/2000/svg" xmlns:xlink="http://www.w3.org/1999/xlink" width="512" height="512" viewBox="0 0 512 512">
<g>
</g>
	<path d="M408.208 150.644c-12.985 12.954-33.994 12.954-46.98 0-12.955-12.955-12.955-33.995 0-46.981l93.931-93.931c12.986-12.955 33.995-12.955 46.981 0 12.954 12.955 12.954 33.995 0 46.98l-93.932 93.932zM255.871 511.727l-127.863-127.864h-95.898c-17.669 0-31.966-14.298-31.966-31.967v-191.794c0-17.668 14.297-31.966 31.966-31.966h95.897l127.864-127.864c0 0 31.966-3.996 31.966 31.966 0 191.233 0 478.926 0 447.522 0 35.962-31.966 31.967-31.966 31.967zM223.905 128.136l-63.932 63.932h-95.897v127.863h95.897l63.932 63.933v-255.728zM383.734 287.965c-17.669 0-31.966-14.297-31.966-31.966 0-17.668 14.297-31.966 31.966-31.966h95.897c17.669 0 31.966 14.298 31.966 31.966 0 17.669-14.297 31.966-31.966 31.966h-95.897zM408.208 361.355l93.932 93.931c12.954 12.986 12.954 34.026 0 46.981-12.986 12.955-33.995 12.955-46.981 0l-93.931-93.931c-12.955-12.986-12.955-34.026 0-46.981 12.986-12.955 33.995-12.955 46.98 0z" fill="#000000" />
</svg>
