<?xml version="1.0" encoding="UTF-8"?>
<svg width="20px" height="20px" viewBox="0 0 20 20" version="1.1" xmlns="http://www.w3.org/2000/svg" xmlns:xlink="http://www.w3.org/1999/xlink">
    <!-- Generator: Sketch 58 (84663) - https://sketch.com -->
    <title>电池</title>
    <desc>Created with Sketch.</desc>
    <g id="电池" stroke="none" stroke-width="1" fill="none" fill-rule="evenodd" stroke-linecap="round" stroke-linejoin="round">
        <g id="编组" transform="translate(5.000000, 3.000000)" stroke="#FFFFFF">
            <path d="M2.56105953,0.494162685 L8.56105953,0.494162685 L8.56105953,2.49416268 L9.56105953,2.49416268 C10.1133443,2.49416268 10.5610595,2.94187793 10.5610595,3.49416268 L10.5610595,12.4941627 C10.5610595,13.0464474 10.1133443,13.4941627 9.56105953,13.4941627 L1.56105953,13.4941627 C1.00877478,13.4941627 0.56105953,13.0464474 0.56105953,12.4941627 L0.56105953,3.49416268 C0.56105953,2.94187793 1.00877478,2.49416268 1.56105953,2.49416268 L2.56105953,2.49416268 L2.56105953,0.494162685 Z" id="形状结合"></path>
            <path d="M2,7.5 L9,7.5" id="路径-18"></path>
            <path d="M1.97977537,5.48733267 L8.97977537,5.48733267" id="路径-18备份"></path>
            <path d="M2,9.48342325 L9,9.48342325" id="路径-18"></path>
            <path d="M2,11.5192641 L9,11.5192641" id="路径-18"></path>
        </g>
    </g>
</svg>