<?xml version="1.0" encoding="UTF-8"?>
<svg width="20px" height="20px" viewBox="0 0 20 20" version="1.1" xmlns="http://www.w3.org/2000/svg" xmlns:xlink="http://www.w3.org/1999/xlink">
    <!-- Generator: Sketch 58 (84663) - https://sketch.com -->
    <title>图像设备</title>
    <desc>Created with Sketch.</desc>
    <g id="图像设备" stroke="none" stroke-width="1" fill="none" fill-rule="evenodd">
        <path d="M17,14 C17,15.1045695 16.1045695,16 15,16 L5,16 C3.8954305,16 3,15.1045695 3,14 L3,12.5032528 C3.55568565,12.8513006 4.38450491,13.0253245 5.48645778,13.0253245 C7.13938708,13.0253245 8.57770335,12.443652 10.1784816,11.7785625 C11.7792599,11.113473 12.1450615,11 13.4033557,11 C14.5236724,11 15.7225539,11.5572324 17,12.6716972 L17,12.6716972 L17,14 Z M6.73333333,7.23076923 C5.96013468,7.23076923 5.33333333,7.85068265 5.33333333,8.61538462 C5.33333333,9.38008658 5.96013468,10 6.73333333,10 C7.50653198,10 8.13333333,9.38008658 8.13333333,8.61538462 C8.13333333,7.85068265 7.50653198,7.23076923 6.73333333,7.23076923 Z M3,6 C3,4.8954305 3.8954305,4 5,4 L15,4 C16.1045695,4 17,4.8954305 17,6 L17,11.3337327 C15.7922249,10.4445776 14.5844498,10 13.3766748,10 C12.3461894,10 10.8252772,10.3685807 10,10.7582034 C9.17472281,11.1478261 7.32455459,12.0253245 5.46217424,12.0253245 C4.22058734,12.0253245 3.3998626,11.8212259 3,11.4130286 L3,11.4130286 L3,6 Z" id="形状结合" fill="#FFFFFF"></path>
    </g>
</svg>