<?xml version="1.0" encoding="UTF-8"?>
<svg width="20px" height="20px" viewBox="0 0 20 20" version="1.1" xmlns="http://www.w3.org/2000/svg" xmlns:xlink="http://www.w3.org/1999/xlink">
    <!-- Generator: Sketch 58 (84663) - https://sketch.com -->
    <title>概况</title>
    <desc>Created with Sketch.</desc>
    <g id="概况" stroke="none" stroke-width="1" fill="none" fill-rule="evenodd">
        <g id="电脑" transform="translate(3.000000, 2.000000)">
            <rect id="矩形" fill="#000000" fill-rule="nonzero" opacity="0" x="0" y="0" width="15" height="15"></rect>
            <path d="M12.4920741,1 C12.772159,1 13,1.22735881 13,1.50685084 L13,1.50685084 L13,3 L11.984,3 L11.9841482,2.01370168 L1.01585175,2.01370168 L1.015,7.999 L1,8 L1,10 L10,9.999 L10,10.979 L7.00792588,10.9793734 L7.00792588,12.9862983 L9.55393122,13 C9.83401607,13 10.0618571,13.2273588 10.0618571,13.5068508 C10.0618571,13.7863429 9.83401607,14.0137017 9.55393122,14.0137017 L9.55393122,14.0137017 L3.55290116,14.0137017 C3.27281632,14.0137017 3.04497528,13.7863429 3.04497528,13.5068508 C3.04497528,13.2273588 3.27281632,13 3.55290116,13 L3.55290116,13 L5.99207412,12.9862983 L5.99207412,10.9793734 L0.507925876,10.9793734 C0.227841036,10.9793734 0,10.7520146 0,10.4725226 L0,10.4725226 L0,1.50685084 C0,1.22735881 0.227841036,1 0.507925876,1 L0.507925876,1 Z M10,7.999 L10,8.013 L1.01585175,8.01370168 L1.015,7.999 L10,7.999 Z" id="形状结合" fill="#FFFFFF" fill-rule="nonzero"></path>
            <rect id="矩形" stroke="#FFFFFF" x="10.5" y="3.5" width="5" height="10" rx="0.25"></rect>
            <rect id="矩形" fill="#FFFFFF" x="12" y="5" width="2" height="1"></rect>
            <rect id="矩形备份" fill="#FFFFFF" x="12" y="7" width="2" height="1"></rect>
            <rect id="矩形备份-2" fill="#FFFFFF" x="13" y="9" width="1" height="1"></rect>
        </g>
    </g>
</svg>