<?xml version="1.0" encoding="UTF-8"?>
<svg width="20px" height="20px" viewBox="0 0 20 20" version="1.1" xmlns="http://www.w3.org/2000/svg" xmlns:xlink="http://www.w3.org/1999/xlink">
    <!-- Generator: Sketch 58 (84663) - https://sketch.com -->
    <title>打印机</title>
    <desc>Created with Sketch.</desc>
    <g id="打印机" stroke="none" stroke-width="1" fill="none" fill-rule="evenodd">
        <g id="编组" transform="translate(4.000000, 3.000000)" fill="#FFFFFF" fill-rule="nonzero">
            <path d="M3.48630137,4 L2.51369863,4 C2.22999071,4 2,4.22385763 2,4.5 C2,4.77614237 2.22999071,5 2.51369863,5 L3.48630137,5 C3.77000929,5 4,4.77614237 4,4.5 C4,4.22385763 3.77000929,4 3.48630137,4 L3.48630137,4 Z" id="路径"></path>
            <path d="M11.5644172,2.02215052 L10.8865031,2.02215052 L10.8865031,1.4518831 C10.8865031,0.650030207 10.2437707,-2.48689958e-14 9.45092025,-2.48689958e-14 L3.54907975,-2.48689958e-14 C2.75622925,-2.48689958e-14 2.11349693,0.650030207 2.11349693,1.4518831 L2.11349693,2.02215052 L1.43558282,2.02215052 C0.642732322,2.02215052 0,2.67218073 0,3.47403363 L0,8.49512937 C0,9.29698226 0.642732322,9.94701247 1.43558282,9.94701247 L2.11349693,9.94701247 L2.11349693,11.5481169 C2.11349693,12.3499698 2.75622925,13 3.54907975,13 L9.45092025,13 C10.2437707,13 10.8865031,12.3499698 10.8865031,11.5481169 L10.8865031,9.94781907 L11.5644172,9.94781907 C12.3572677,9.94781907 13,9.29778887 13,8.49593597 L13,3.47403363 C13,2.67218073 12.3572677,2.02215052 11.5644172,2.02215052 Z M3.07055215,1.4518831 C3.07055215,1.18459881 3.28479625,0.96792207 3.54907975,0.96792207 L9.45092025,0.96792207 C9.57783366,0.96792207 9.69954903,1.01891068 9.78929036,1.10967098 C9.8790317,1.20043127 9.92944785,1.32352866 9.92944785,1.4518831 L9.92944785,2.02215052 L3.07055215,2.02215052 L3.07055215,1.4518831 Z M9.92944785,11.5019489 C9.92944785,11.6425479 9.8790317,11.7773883 9.78929036,11.8768067 C9.69954903,11.9762252 9.57783366,12.0320779 9.45092025,12.0320779 L3.54907975,12.0320779 C3.28479625,12.0320779 3.07055215,11.7947311 3.07055215,11.5019489 L3.07055215,7.56220693 C3.07055215,7.26942477 3.28479625,7.03207793 3.54907975,7.03207793 L9.45092025,7.03207793 C9.57783366,7.03207793 9.69954903,7.08793065 9.78929036,7.18734912 C9.8790317,7.28676759 9.92944785,7.42160798 9.92944785,7.56220693 L9.92944785,11.5019489 Z M12.0429448,8.5860866 C12.0429448,8.8092019 11.8287007,8.99007259 11.5644172,8.99007259 L10.8865031,8.99007259 L10.8865031,7.13160235 C10.8865031,6.46225644 10.2437707,5.91964437 9.45092025,5.91964437 L3.54907975,5.91964437 C2.75622925,5.91964437 2.11349693,6.46225644 2.11349693,7.13160235 L2.11349693,8.99007259 L1.43558282,8.99007259 C1.17129932,8.99007259 0.957055215,8.8092019 0.957055215,8.5860866 L0.957055215,3.39405859 C0.957055215,3.17094329 1.17129932,2.99007259 1.43558282,2.99007259 L11.5644172,2.99007259 C11.8287007,2.99007259 12.0429448,3.17094329 12.0429448,3.39405859 L12.0429448,8.5860866 Z" id="形状"></path>
        </g>
    </g>
</svg>