<?xml version="1.0" encoding="UTF-8"?>
<svg width="20px" height="20px" viewBox="0 0 20 20" version="1.1" xmlns="http://www.w3.org/2000/svg" xmlns:xlink="http://www.w3.org/1999/xlink">
    <!-- Generator: Sketch 58 (84663) - https://sketch.com -->
    <title>处理器备份</title>
    <desc>Created with Sketch.</desc>
    <g id="处理器备份" stroke="none" stroke-width="1" fill="none" fill-rule="evenodd">
        <g id="编组" transform="translate(2.000000, 2.000000)">
            <path d="M2.5,2.5 L2.5,12.5 L12.5,12.5 L12.5,2.5 L2.5,2.5 Z" id="矩形" stroke="#FFFFFF"></path>
            <rect id="矩形" fill="#FFFFFF" x="12" y="7" width="3" height="1"></rect>
            <rect id="矩形备份-6" fill="#FFFFFF" transform="translate(7.500000, 13.500000) rotate(-270.000000) translate(-7.500000, -13.500000) " x="6" y="13" width="3" height="1"></rect>
            <rect id="矩形备份-3" fill="#FFFFFF" x="0" y="7" width="3" height="1"></rect>
            <rect id="矩形备份-7" fill="#FFFFFF" transform="translate(7.500000, 1.500000) rotate(-270.000000) translate(-7.500000, -1.500000) " x="6" y="1" width="3" height="1"></rect>
            <rect id="矩形备份" fill="#FFFFFF" x="12" y="5" width="3" height="1"></rect>
            <rect id="矩形备份-8" fill="#FFFFFF" transform="translate(9.500000, 13.500000) rotate(-270.000000) translate(-9.500000, -13.500000) " x="8" y="13" width="3" height="1"></rect>
            <rect id="矩形备份-4" fill="#FFFFFF" x="0" y="5" width="3" height="1"></rect>
            <rect id="矩形备份-9" fill="#FFFFFF" transform="translate(9.500000, 1.500000) rotate(-270.000000) translate(-9.500000, -1.500000) " x="8" y="1" width="3" height="1"></rect>
            <rect id="矩形备份-2" fill="#FFFFFF" x="12" y="9" width="3" height="1"></rect>
            <rect id="矩形备份-10" fill="#FFFFFF" transform="translate(5.500000, 13.500000) rotate(-270.000000) translate(-5.500000, -13.500000) " x="4" y="13" width="3" height="1"></rect>
            <rect id="矩形备份-5" fill="#FFFFFF" x="0" y="9" width="3" height="1"></rect>
            <rect id="矩形备份-11" fill="#FFFFFF" transform="translate(5.500000, 1.500000) rotate(-270.000000) translate(-5.500000, -1.500000) " x="4" y="1" width="3" height="1"></rect>
        </g>
    </g>
</svg>