<?xml version="1.0" encoding="UTF-8"?>
<svg width="20px" height="20px" viewBox="0 0 20 20" version="1.1" xmlns="http://www.w3.org/2000/svg" xmlns:xlink="http://www.w3.org/1999/xlink">
    <!-- Generator: Sketch 58 (84663) - https://sketch.com -->
    <title>音频适配器</title>
    <desc>Created with Sketch.</desc>
    <g id="音频适配器" stroke="none" stroke-width="1" fill="none" fill-rule="evenodd">
        <g id="编组" transform="translate(4.000000, 4.000000)" fill="#C0C6D4" fill-rule="nonzero">
            <path d="M2.93454545,2.55967601 L6.60909091,0.145353068 C7.03490909,-0.134324387 7.59563636,0.00174013707 7.86181818,0.449224087 C7.95218181,0.601159587 8,0.776708006 8,0.955740279 L8,11.0442579 C8,11.572258 7.59290909,12 7.09090908,12 C6.92054544,12 6.75363635,11.9496774 6.60909091,11.8548387 L2.93454545,9.44032219 L1.27272728,9.44032219 C0.569818192,9.44032219 0,8.84128985 0,8.10232199 L0,3.89767621 C0,3.15870837 0.569818175,2.55967601 1.27272728,2.55967601 L2.93454545,2.55967601 Z M3.36062501,3.46705107 C3.27099463,3.52770033 3.16777573,3.55978478 3.06250001,3.55971994 L1.18750001,3.55971994 C1.08400001,3.55971994 1,3.65074136 1,3.76317958 L1,8.23702636 C1,8.34925864 1.08400001,8.440486 1.18750001,8.440486 L3.06250001,8.440486 C3.16787501,8.440486 3.27118751,8.47261121 3.36062501,8.53315486 L7,11 L7,1 L3.36062501,3.46705107 Z M11.8475792,11.8368442 C11.6481186,12.0596884 11.3336127,12.0534978 11.1406052,11.8229285 C11.0484575,11.7128422 10.9978155,11.5638087 11.0000723,11.4093567 C11.0023292,11.2549047 11.0572953,11.1080055 11.1526048,11.0017073 C13.6158475,8.23699472 13.6158475,3.7628093 11.1526048,0.998096683 C11.0573468,0.891805158 11.0024138,0.744947762 11.0001572,0.590544275 C10.9979005,0.436140787 11.0485096,0.287150047 11.1406052,0.177071501 C11.3336127,-0.0534978361 11.6481186,-0.0596883917 11.8475792,0.163155826 C14.7174736,3.38434198 14.7174736,8.61565804 11.8475792,11.8368442 L11.8475792,11.8368442 Z M9.77892748,9.82691618 C9.59302697,10.0668394 9.30266824,10.0560261 9.126335,9.80261289 C9.0422757,9.68162089 8.99681773,9.51890309 9.00017343,9.35101478 C9.00352913,9.18312646 9.05541712,9.0241451 9.14418054,8.90978658 C10.3878292,7.29873397 10.3878292,4.70147923 9.14418054,3.09021342 C9.05541712,2.9758549 9.00352913,2.81687354 9.00017343,2.64898522 C8.99681773,2.48109691 9.0422757,2.31837911 9.126335,2.19738711 C9.30266824,1.94397389 9.59302697,1.93316059 9.77892748,2.17308382 C11.4070242,4.28256717 11.4070242,7.71764602 9.77892748,9.82712935 L9.77892748,9.82691618 Z" id="形状"></path>
        </g>
    </g>
</svg>