<?xml version="1.0" encoding="UTF-8"?>
<svg width="20px" height="20px" viewBox="0 0 20 20" version="1.1" xmlns="http://www.w3.org/2000/svg" xmlns:xlink="http://www.w3.org/1999/xlink">
    <!-- Generator: Sketch 58 (84663) - https://sketch.com -->
    <title>光驱设备</title>
    <desc>Created with Sketch.</desc>
    <g id="光驱设备" stroke="none" stroke-width="1" fill="none" fill-rule="evenodd">
        <g id="编组" transform="translate(3.000000, 3.000000)" fill="#FFFFFF" fill-rule="nonzero">
            <path d="M13.4516114,4.2847082 C12.056279,0.970463712 8.37640712,-0.747220604 4.93966697,0.311517335 C1.50292683,1.37025527 -0.572296392,4.8608806 0.139449674,8.38571382 C0.851195739,11.910547 4.11829444,14.3225357 7.69660475,13.9649063 C11.274915,13.6072768 13.9999876,10.5964092 13.9999876,7.00044149 C14.0012375,6.06757766 13.8147457,5.14400009 13.4516114,4.2847082 L13.4516114,4.2847082 Z M11.1961989,11.1732381 C9.20536625,13.1639723 6.08546183,13.4712383 3.74449402,11.9071247 C1.4035262,10.3430111 0.493486929,7.34314513 1.5709197,4.74212441 C2.64835247,2.1411037 5.41317735,0.663348537 8.17453837,1.21259469 C10.9358994,1.76184084 12.9247382,4.18511565 12.9247382,7.00044149 C12.9290552,8.56640491 12.306626,10.0690056 11.1961989,11.1732381 L11.1961989,11.1732381 Z" id="形状"></path>
            <path d="M7.12088612,2 C4.29273279,2.00008203 2.00008203,4.29273279 2,7.12088612 L3.02637554,7.12088612 C3.02637554,4.85955037 4.85955037,3.02637554 7.12088612,3.02637554 L7.12088612,2 Z M7.12088612,5.24177223 C6.08308018,5.24177223 5.24177223,6.08308018 5.24177223,7.12088612 C5.24177223,8.15869206 6.08308018,9 7.12088612,9 C8.15869206,9 9,8.15869206 9,7.12088612 C8.99885396,6.08355525 8.15821698,5.24291827 7.12088612,5.24177223 L7.12088612,5.24177223 Z M7.12088612,7.97362446 C6.64993173,7.97362446 6.26814777,7.5918405 6.26814777,7.12088612 C6.26814777,6.64993173 6.64993173,6.26814777 7.12088612,6.26814777 C7.5918405,6.26814777 7.97362446,6.64993173 7.97362446,7.12088612 C7.97305156,7.59160299 7.59160299,7.97305156 7.12088612,7.97362446 Z" id="形状"></path>
        </g>
    </g>
</svg>