<?xml version="1.0" encoding="UTF-8"?>
<svg width="20px" height="20px" viewBox="0 0 20 20" version="1.1" xmlns="http://www.w3.org/2000/svg" xmlns:xlink="http://www.w3.org/1999/xlink">
    <!-- Generator: Sketch 58 (84663) - https://sketch.com -->
    <title>其他输入设备</title>
    <desc>Created with Sketch.</desc>
    <g id="其他输入设备" stroke="none" stroke-width="1" fill="none" fill-rule="evenodd" stroke-linecap="round" stroke-linejoin="round">
        <g id="编组" transform="translate(4.000000, 4.000000)" stroke="#C0C6D4">
            <path d="M8.80769231,1.5 L11.5769231,1.5 C12.0867244,1.5 12.5,1.89175084 12.5,2.375 L12.5,7.625 C12.5,8.10824916 12.0867244,8.5 11.5769231,8.5 L1.42307692,8.5 C0.913275616,8.5 0.5,8.10824916 0.5,7.625 L0.5,2.375 C0.5,1.89175084 0.913275616,1.5 1.42307692,1.5 L4.19230769,1.5" id="形状"></path>
            <path d="M3.5,11.5 L9.5,11.5" id="路径-8"></path>
            <path d="M6.5,9 L6.5,11.3076923" id="路径-10"></path>
            <path d="M6.5,0.5 L6.5,4.5" id="路径"></path>
            <polyline id="路径" transform="translate(6.500000, 4.750000) rotate(-180.000000) translate(-6.500000, -4.750000) " points="5 5.5 6.5 4 6.5 4 8 5.5"></polyline>
        </g>
    </g>
</svg>