<?xml version="1.0" encoding="UTF-8"?>
<svg width="20px" height="20px" viewBox="0 0 20 20" version="1.1" xmlns="http://www.w3.org/2000/svg" xmlns:xlink="http://www.w3.org/1999/xlink">
    <!-- Generator: Sketch 58 (84663) - https://sketch.com -->
    <title>打印机</title>
    <desc>Created with Sketch.</desc>
    <g id="打印机" stroke="none" stroke-width="1" fill="none" fill-rule="evenodd">
        <path d="M7.48630137,7 L6.51369863,7 C6.22999071,7 6,7.22385763 6,7.5 C6,7.77614237 6.22999071,8 6.51369863,8 L7.48630137,8 C7.77000929,8 8,7.77614237 8,7.5 C8,7.22385763 7.77000929,7 7.48630137,7 L7.48630137,7 Z" id="路径" fill="#C0C6D4" fill-rule="nonzero"></path>
        <path d="M15.5644172,5.02215052 L14.8865031,5.02215052 L14.8865031,4.4518831 C14.8865031,3.65003021 14.2437707,3 13.4509202,3 L7.54907975,3 C6.75622925,3 6.11349693,3.65003021 6.11349693,4.4518831 L6.11349693,5.02215052 L5.43558282,5.02215052 C4.64273232,5.02215052 4,5.67218073 4,6.47403363 L4,11.4951294 C4,12.2969823 4.64273232,12.9470125 5.43558282,12.9470125 L6.11349693,12.9470125 L6.11349693,14.5481169 C6.11349693,15.3499698 6.75622925,16 7.54907975,16 L13.4509202,16 C14.2437707,16 14.8865031,15.3499698 14.8865031,14.5481169 L14.8865031,12.9478191 L15.5644172,12.9478191 C16.3572677,12.9478191 17,12.2977889 17,11.495936 L17,6.47403363 C17,5.67218073 16.3572677,5.02215052 15.5644172,5.02215052 Z M7.07055215,4.4518831 C7.07055215,4.18459881 7.28479625,3.96792207 7.54907975,3.96792207 L13.4509202,3.96792207 C13.5778337,3.96792207 13.699549,4.01891068 13.7892904,4.10967098 C13.8790317,4.20043127 13.9294479,4.32352866 13.9294479,4.4518831 L13.9294479,5.02215052 L7.07055215,5.02215052 L7.07055215,4.4518831 Z M13.9294479,14.5019489 C13.9294479,14.6425479 13.8790317,14.7773883 13.7892904,14.8768067 C13.699549,14.9762252 13.5778337,15.0320779 13.4509202,15.0320779 L7.54907975,15.0320779 C7.28479625,15.0320779 7.07055215,14.7947311 7.07055215,14.5019489 L7.07055215,10.5622069 C7.07055215,10.2694248 7.28479625,10.0320779 7.54907975,10.0320779 L13.4509202,10.0320779 C13.5778337,10.0320779 13.699549,10.0879306 13.7892904,10.1873491 C13.8790317,10.2867676 13.9294479,10.421608 13.9294479,10.5622069 L13.9294479,14.5019489 Z M16.0429448,11.5860866 C16.0429448,11.8092019 15.8287007,11.9900726 15.5644172,11.9900726 L14.8865031,11.9900726 L14.8865031,10.1316024 C14.8865031,9.46225644 14.2437707,8.91964437 13.4509202,8.91964437 L7.54907975,8.91964437 C6.75622925,8.91964437 6.11349693,9.46225644 6.11349693,10.1316024 L6.11349693,11.9900726 L5.43558282,11.9900726 C5.17129932,11.9900726 4.95705521,11.8092019 4.95705521,11.5860866 L4.95705521,6.39405859 C4.95705521,6.17094329 5.17129932,5.99007259 5.43558282,5.99007259 L15.5644172,5.99007259 C15.8287007,5.99007259 16.0429448,6.17094329 16.0429448,6.39405859 L16.0429448,11.5860866 Z" id="形状" fill="#C0C6D4" fill-rule="nonzero"></path>
    </g>
</svg>